# Blender v3.5.0 OBJ File: 'Enterables_egypt_walls_02.blend'
# www.blender.org
mtllib LOD2_egypt_walls_005.mtl
o Mesh.060_Cube.089
v 1.609150 10.999999 -3.539728
v 1.609150 10.999999 -2.455167
v 1.609150 10.999999 -1.544832
v 1.609150 10.999999 -0.460271
v 2.276300 10.999999 -2.455167
v 2.276300 10.999999 -3.539728
v 2.276300 10.999999 -0.460271
v 2.276300 10.999999 -1.544832
v 1.184931 9.906913 0.000000
v 1.648477 11.413538 -0.515220
v 1.648477 11.413538 -1.489884
v 2.236973 11.413538 -3.484780
v 2.236973 11.413538 -2.510116
v 2.236973 11.413538 -0.515220
v 1.648477 11.413538 -3.484780
v 1.648477 11.413538 -2.510116
v 2.236973 11.413538 -1.489884
v 2.385450 10.888206 0.000000
v 2.501039 10.899751 0.000000
v 2.501039 10.999999 0.000000
v 2.385450 10.804974 0.000000
v 1.960070 9.200426 0.000000
v 2.101230 9.190426 0.000000
v 2.242390 10.791393 0.000000
v 1.996974 10.575326 0.000000
v 2.242390 10.575326 0.000000
v 1.500000 10.888206 0.000000
v 1.384412 10.899751 0.000000
v 1.384412 10.999999 0.000000
v 1.996974 10.310862 0.000000
v 2.846531 0.220707 0.000000
v 3.296012 0.173602 0.000000
v 3.305826 0.049635 0.000000
v 3.399848 0.000000 0.000000
v 3.399848 0.049635 0.000000
v 2.836031 0.279211 0.000000
v 2.771999 0.269211 0.000000
v 2.101230 10.310862 0.000000
v 1.500000 10.086913 0.000000
v 1.164931 10.086913 0.000000
v 1.164931 9.916913 0.000000
v 2.101230 10.142677 0.000000
v 2.171230 10.142677 0.000000
v 2.101230 9.382191 0.000000
v 2.171230 9.382191 0.000000
v 1.620737 11.121838 -2.471356
v 2.264713 11.121839 -3.523539
v 1.620737 11.121839 -1.528643
v 1.620737 11.121839 -0.476460
v 2.264713 11.121838 -0.476460
v 2.264713 11.121839 -1.528644
v 1.620737 11.121839 -3.523539
v 2.264713 11.121838 -2.471356
v 2.276300 10.999999 0.000000
v 1.609150 10.999999 0.000000
v 1.620737 11.121839 0.000000
v 2.264713 11.121838 0.000000
v 1.164931 10.016913 0.000000
v 2.785830 4.498990 -5.784185
v 2.785830 4.498990 -5.532943
v 2.785830 4.498990 -4.467057
v 2.785830 4.498990 -4.215815
v 2.785830 5.187204 -5.784185
v 2.785830 5.187204 -5.532943
v 2.785830 5.187204 -4.467057
v 2.785830 5.187204 -4.215815
v 2.983354 4.498990 -5.532943
v 2.983354 4.498990 -5.784185
v 2.983354 4.498990 -4.467057
v 2.983354 4.498990 -4.215815
v 2.983354 4.693768 -5.532943
v 2.983354 4.693768 -5.784185
v 2.983354 4.693768 -4.467057
v 2.983354 4.693768 -4.215815
v 2.082199 7.857007 0.000000
v 1.788214 8.577522 -2.850000
v 1.788214 8.577522 -3.150000
v 1.708724 9.200426 -3.150000
v 1.788214 8.577522 -0.850000
v 1.788214 8.577522 -1.150000
v 1.960070 9.200426 -2.850000
v 1.960070 9.200426 -3.150000
v 1.960070 9.200426 -1.150000
v 2.082199 7.857007 -3.150000
v 2.082199 7.857007 -2.850000
v 2.082199 7.857007 -1.150000
v 2.082199 7.857007 -0.850000
v 1.960070 9.200426 -0.850000
v 1.708724 9.200426 -0.850000
v 1.708724 9.200426 -1.150000
v 1.708724 9.200426 -2.850000
v 2.846531 0.000000 0.000000
v 1.609150 10.999999 -6.460271
v 2.276300 10.999999 -6.460271
v 2.236973 11.413538 -6.515220
v 1.648477 11.413538 -6.515220
v 2.264713 11.121839 -6.476460
v 1.620737 11.121839 -6.476460
v 1.788214 8.577522 -7.150000
v 1.788214 8.577522 -6.850000
v 1.708724 9.200426 -6.850000
v 1.708724 9.200426 -7.150000
v 1.960070 9.200426 -7.150000
v 1.960070 9.200426 -6.850000
v 2.082199 7.857007 -6.850000
v 2.082199 7.857007 -7.150000
v 1.184931 9.906913 -7.184931
v 1.164931 10.016913 -7.164931
v 1.648477 11.413538 -7.648478
v 2.276300 10.999999 -8.276300
v 1.609150 10.999999 -7.609151
v 2.264713 11.121839 -8.264713
v 1.620737 11.121839 -7.620737
v 2.385451 10.888206 -8.385450
v 2.501039 10.899751 -8.501040
v 2.385451 10.804974 -8.385451
v 1.384412 10.999999 -7.384412
v 2.501038 10.999999 -8.501039
v 2.101230 9.190426 -8.101231
v 2.101230 9.382191 -8.101231
v 2.082199 7.857007 -8.082199
v 2.242391 10.791393 -8.242391
v 2.242391 10.575326 -8.242391
v 1.384412 10.899751 -7.384412
v 1.500000 10.888206 -7.500000
v 1.500000 10.086913 -7.500000
v 1.996974 10.575326 -7.996974
v 1.996974 10.310862 -7.996974
v 2.101230 10.310862 -8.101231
v 2.836031 0.279211 -8.836031
v 3.305826 0.049635 -9.305826
v 3.296012 0.173602 -9.296012
v 2.846531 0.220707 -8.846531
v 3.399848 0.049635 -9.399849
v 3.399848 0.000000 -9.399849
v 1.164931 10.086913 -7.164931
v 1.164931 9.916913 -7.164931
v 2.101230 10.142677 -8.101231
v 2.171230 10.142677 -8.171230
v 2.171230 9.382191 -8.171230
v 2.771998 0.269211 -8.771999
v 2.846530 0.000000 -8.846531
v 0.460271 10.999999 -7.609150
v 0.460271 10.999999 -8.276299
v 0.515219 11.413538 -8.236973
v 0.515219 11.413538 -7.648478
v 0.476460 11.121839 -8.264713
v 0.476460 11.121839 -7.620737
v 1.150000 8.577522 -7.788214
v 0.850000 8.577522 -7.788214
v 0.850000 9.200426 -7.708724
v 1.150000 9.200426 -7.708724
v 1.150000 9.200426 -7.960070
v 0.850000 9.200426 -7.960070
v 0.850000 7.857007 -8.082199
v 1.149999 7.857007 -8.082199
v 2.070930 10.310862 -6.476460
v 1.882103 10.310862 -6.476460
v 2.070930 10.575326 -6.476460
v 1.882103 10.575326 -6.476460
v 0.476460 10.310862 -8.073305
v 0.476460 10.310862 -7.890298
v 0.476460 10.575326 -8.073305
v 0.476460 10.575326 -7.890298
v 1.970930 10.310862 -8.073305
v 2.070930 10.310862 -7.973305
v 2.070930 10.575326 -7.973305
v 1.970930 10.575326 -8.073305
v 0.000000 9.190426 -6.000000
v 2.101230 9.190426 -6.000000
v -1.609150 10.999999 -3.539728
v -1.609150 10.999999 -2.455167
v -1.609150 10.999999 -1.544832
v -1.609150 10.999999 -0.460271
v -2.276300 10.999999 -2.455167
v -2.276300 10.999999 -3.539728
v -2.276300 10.999999 -0.460271
v -2.276300 10.999999 -1.544832
v -1.184931 9.906913 0.000000
v -1.648477 11.413538 -0.515220
v -1.648477 11.413538 -1.489884
v -2.236973 11.413538 -3.484780
v -2.236973 11.413538 -2.510116
v -2.236973 11.413538 -0.515220
v -1.648477 11.413538 -3.484780
v -1.648477 11.413538 -2.510116
v -2.236973 11.413538 -1.489884
v -2.385450 10.888206 0.000000
v -2.501039 10.899751 0.000000
v -2.501039 10.999999 0.000000
v -2.385450 10.804974 0.000000
v -1.960070 9.200426 0.000000
v -2.101230 9.190426 0.000000
v -2.242390 10.791393 0.000000
v -1.996974 10.575326 0.000000
v -2.242390 10.575326 0.000000
v -1.500000 10.888206 0.000000
v -1.384412 10.899751 0.000000
v -1.384412 10.999999 0.000000
v -1.996974 10.310862 0.000000
v -2.846531 0.220707 0.000000
v -3.296012 0.173602 0.000000
v -3.305826 0.049635 0.000000
v -3.399848 0.000000 0.000000
v -3.399848 0.049635 0.000000
v -2.836031 0.279211 0.000000
v -2.771999 0.269211 0.000000
v -2.101230 10.310862 0.000000
v -1.500000 10.086913 0.000000
v -1.164931 10.086913 0.000000
v -1.164931 9.916913 0.000000
v -2.101230 10.142677 0.000000
v -2.171230 10.142677 0.000000
v -2.101230 9.382191 0.000000
v -2.171230 9.382191 0.000000
v -1.620737 11.121838 -2.471356
v -2.264713 11.121839 -3.523539
v -1.620737 11.121839 -1.528643
v -1.620737 11.121839 -0.476460
v -2.264713 11.121838 -0.476460
v -2.264713 11.121839 -1.528644
v -1.620737 11.121839 -3.523539
v -2.264713 11.121838 -2.471356
v -2.276300 10.999999 0.000000
v -1.609150 10.999999 0.000000
v -1.620737 11.121839 0.000000
v -2.264713 11.121838 0.000000
v -1.164931 10.016913 0.000000
v -2.785830 4.498990 -5.784185
v -2.785830 4.498990 -5.532943
v -2.785830 4.498990 -4.467057
v -2.785830 4.498990 -4.215815
v -2.785830 5.187204 -5.784185
v -2.785830 5.187204 -5.532943
v -2.785830 5.187204 -4.467057
v -2.785830 5.187204 -4.215815
v -2.983354 4.498990 -5.532943
v -2.983354 4.498990 -5.784185
v -2.983354 4.498990 -4.467057
v -2.983354 4.498990 -4.215815
v -2.983354 4.693768 -5.532943
v -2.983354 4.693768 -5.784185
v -2.983354 4.693768 -4.467057
v -2.983354 4.693768 -4.215815
v -2.082199 7.857007 0.000000
v -1.788214 8.577522 -2.850000
v -1.788214 8.577522 -3.150000
v -1.708724 9.200426 -3.150000
v -1.788214 8.577522 -0.850000
v -1.788214 8.577522 -1.150000
v -1.960070 9.200426 -1.150000
v -2.082199 7.857007 -3.150000
v -2.082199 7.857007 -2.850000
v -2.082199 7.857007 -1.150000
v -2.082199 7.857007 -0.850000
v -1.960070 9.200426 -0.850000
v -1.708724 9.200426 -0.850000
v -1.708724 9.200426 -1.150000
v -1.708724 9.200426 -2.850000
v -2.846531 0.000000 0.000000
v -1.609150 10.999999 -6.460271
v -2.276300 10.999999 -6.460271
v -2.236973 11.413538 -6.515220
v -1.648477 11.413538 -6.515220
v -2.264713 11.121839 -6.476460
v -1.620737 11.121839 -6.476460
v -1.788214 8.577522 -7.150000
v -1.788214 8.577522 -6.850000
v -1.708724 9.200426 -6.850000
v -1.708724 9.200426 -7.150000
v -1.960070 9.200426 -7.150000
v -1.960070 9.200426 -6.850000
v -2.082199 7.857007 -6.850000
v -2.082199 7.857007 -7.150000
v -1.184931 9.906913 -7.184931
v -1.164931 10.016913 -7.164931
v -1.648477 11.413538 -7.648478
v -2.276300 10.999999 -8.276300
v -1.609150 10.999999 -7.609151
v -2.264713 11.121839 -8.264713
v -1.620737 11.121839 -7.620737
v -1.384412 10.999999 -7.384412
v -2.101230 9.190426 -8.101231
v -2.101230 9.382191 -8.101231
v -2.082199 7.857007 -8.082199
v -2.242391 10.791393 -8.242391
v -2.242391 10.575326 -8.242391
v -1.384412 10.899751 -7.384412
v -1.500000 10.888206 -7.500000
v -1.500000 10.086913 -7.500000
v -1.996974 10.575326 -7.996974
v -1.996974 10.310862 -7.996974
v -2.101230 10.310862 -8.101231
v -2.836031 0.279211 -8.836031
v -3.305826 0.049635 -9.305826
v -3.296012 0.173602 -9.296012
v -2.846531 0.220707 -8.846531
v -3.399848 0.049635 -9.399849
v -3.399848 0.000000 -9.399849
v -1.164931 10.086913 -7.164931
v -1.164931 9.916913 -7.164931
v -2.101230 10.142677 -8.101231
v -2.171230 10.142677 -8.171230
v -2.171230 9.382191 -8.171230
v -2.771998 0.269211 -8.771999
v -2.846530 0.000000 -8.846531
v -0.460271 10.999999 -7.609150
v -0.460271 10.999999 -8.276299
v -0.515219 11.413538 -8.236973
v -0.515219 11.413538 -7.648478
v -0.476460 11.121839 -8.264713
v -0.476460 11.121839 -7.620737
v -1.150000 8.577522 -7.788214
v -0.850000 8.577522 -7.788214
v -0.850000 9.200426 -7.708724
v -1.150000 9.200426 -7.708724
v -1.150000 9.200426 -7.960070
v -0.850000 9.200426 -7.960070
v -0.850000 7.857007 -8.082199
v -1.149999 7.857007 -8.082199
v 0.000000 0.269211 -8.771998
v -2.070930 10.310862 -6.476460
v -1.882103 10.310862 -6.476460
v -2.070930 10.575326 -6.476460
v -1.882103 10.575326 -6.476460
v -0.476460 10.310862 -8.073305
v -0.476460 10.310862 -7.890298
v -0.476460 10.575326 -8.073305
v -0.476460 10.575326 -7.890298
v -1.970930 10.310862 -8.073305
v -2.070930 10.310862 -7.973305
v -2.070930 10.575326 -7.973305
v -1.970930 10.575326 -8.073305
v -2.101230 9.190426 -6.000000
v 1.960070 9.200426 -7.840604
v 1.970842 9.081935 -7.970842
v 1.840603 9.200426 -7.960070
v -1.572888 9.200426 -7.960070
v -1.994981 8.816405 -7.994981
v -1.960070 9.200426 -7.572888
v -1.846667 9.200426 -7.846668
v -1.960070 9.200426 -3.260507
v -1.987558 8.898054 -3.150000
v -1.849563 9.200426 -3.150000
v -1.824283 9.200426 -2.850000
v -2.002480 8.733914 -2.850000
v -1.960070 9.200426 -2.714213
v -2.447623 10.894415 -8.251912
v -2.501039 10.899751 -8.106038
v -2.017350 10.999999 -8.501039
v -1.923253 11.413538 -8.236974
v -2.127462 11.413538 -7.955068
v -2.415267 10.999999 -8.182384
v -2.501038 10.999999 -8.012618
v -2.209594 10.999999 -8.421368
v -2.329497 10.999999 -8.305660
v -2.385451 10.804974 -8.343685
v -2.385451 10.888206 -8.291606
v -2.288394 10.888206 -8.385450
v -2.332156 10.804974 -8.385451
v -2.237501 10.896560 -8.469092
v -2.156123 10.899751 -8.501040
v -2.028477 11.353539 -8.127462
v -2.116915 11.301247 -8.247652
v -2.259877 11.172695 -8.259877
v -1.956051 11.413538 -8.127462
v -2.247570 11.302106 -8.122148
v -2.236973 11.413538 -7.922006
v -2.127462 11.353539 -8.026757
v 2.255491 11.218815 -8.255491
v 2.097697 11.413537 -8.236974
v 2.236973 11.413538 -8.158714
v 2.157165 7.032380 -8.157166
v 2.382009 4.559098 -8.382010
v 2.052788 6.078341 -8.243896
v 1.866020 6.386482 -8.215883
v 2.199718 6.564291 -8.102799
v 2.221661 6.322920 -7.925193
v 2.253075 5.977373 -8.084735
v -2.293266 5.535268 -8.293266
v -2.507693 3.176574 -8.507693
v -2.279339 4.399227 -8.396544
v -2.090776 4.681008 -8.370927
v -2.371724 4.672233 -8.189967
v -2.414915 4.197125 -8.292780
v 1.079488 4.498990 -3.848525
v 2.936587 11.509729 -3.847264
v 1.079647 11.509729 -3.847264
v 2.785830 4.498990 -4.000000
v 1.230403 4.498990 -4.000000
v 2.642390 10.495642 -4.906183
v 2.785830 10.718952 -4.682872
v 2.785830 4.498990 -4.682872
v 1.079488 4.419633 -6.151475
v 3.084190 4.498990 -4.682872
v 3.084190 4.419633 -4.682872
v 2.948708 4.357337 -4.682872
v 2.948708 4.357337 -4.000000
v 1.230403 4.357337 -6.000000
v 2.948708 4.357337 -6.000000
v 2.948708 4.357337 -5.317128
v 3.084190 4.419633 -5.317128
v 3.084190 4.498990 -5.317128
v 2.785830 4.498990 -5.317128
v 2.785830 10.718952 -5.317128
v 2.642390 10.495642 -5.093817
v 1.230403 4.498990 -6.000000
v 2.785830 4.498990 -6.000000
v 1.079647 11.509729 -6.152737
v 2.936587 11.509729 -6.152737
v 1.079488 4.498990 -6.151475
v 3.084190 4.419633 -3.848525
v 3.084190 4.498990 -3.848525
v 1.230403 4.357337 -4.000000
v 1.079488 4.419633 -3.848525
v 2.642390 10.718952 -4.682872
v 2.642390 4.498989 -4.682872
v 2.642390 4.498989 -5.317128
v 2.642390 10.718952 -5.317128
v 2.437384 10.495642 -4.906183
v 2.437384 4.498989 -4.906183
v 2.437384 4.498989 -5.093817
v 2.437384 10.495642 -5.093817
v 2.642390 4.498989 -4.906183
v 2.642390 4.498989 -5.093817
v 1.002796 11.790808 -3.770774
v 3.013438 11.790808 -6.229226
v 1.002796 11.790808 -6.229226
v 1.387159 11.866280 -4.198458
v 2.629075 11.866280 -4.198458
v 2.629075 11.866280 -5.801542
v 1.387159 11.866280 -5.801542
v 1.387159 11.680745 -4.198458
v 2.629075 11.680745 -4.198458
v 2.629075 11.680745 -5.801542
v 1.387159 11.680745 -5.801542
v 3.342496 0.025668 -5.317128
v 3.342496 0.025668 -4.682872
v 3.342496 0.025668 -4.000000
v 1.230403 0.025668 -6.000000
v 3.342496 0.025668 -6.000000
v 1.230403 0.025668 -4.000000
v 3.338243 0.072455 -4.682872
v 1.230403 0.072455 -4.000000
v 3.338243 0.072455 -6.000000
v 3.338243 0.072455 -4.000000
v 3.338243 0.072455 -5.317128
v 1.230403 0.072455 -6.000000
v 2.785830 11.428638 -4.000000
v 2.869648 11.509729 -3.915990
v 2.861371 11.450163 -3.924460
v 1.146586 11.509729 -3.915990
v 1.230403 11.428638 -4.000000
v 1.154863 11.450163 -3.924460
v 1.146586 11.509729 -6.084010
v 1.230403 11.428638 -6.000000
v 1.154863 11.450163 -6.075541
v 2.869648 11.509729 -6.084010
v 2.785830 11.428638 -6.000000
v 2.861371 11.450163 -6.075541
v 0.923421 11.790808 -3.691400
v 3.092812 11.790808 -6.308600
v 0.923421 11.790808 -6.308600
v 0.923421 11.866280 -6.308600
v 0.923421 11.866280 -3.691400
v 3.092812 11.866280 -6.308600
v 2.785830 7.815737 -4.000000
v 2.652718 8.518358 -4.000000
v 2.785830 8.515260 -4.122484
v 2.785830 9.484019 -4.000000
v 2.785830 8.898920 -4.200591
v 2.785830 8.998926 -4.106359
v 2.611816 9.009101 -4.000000
v 2.418595 8.899525 -4.000000
v 2.785830 8.828228 -4.099096
v 2.673020 8.802311 -4.000000
v 2.785830 7.596238 -6.000000
v 2.785830 5.061343 -6.000000
v 2.785830 5.730654 -5.804522
v 2.653203 5.737268 -6.000000
v 3.278371 0.731049 -4.000000
v 3.164054 1.988529 -4.000000
v 3.044977 1.098205 -4.000000
v 3.244129 1.107706 -4.093544
v 3.084190 4.498990 -5.873155
v 2.959833 4.498990 -6.151475
v 2.871153 4.419633 -6.151475
v 3.084190 4.419633 -5.806764
v 3.092812 11.790808 -3.870594
v 2.796922 11.790808 -3.770774
v 3.013438 11.790808 -3.856254
v 2.828156 11.866280 -3.831891
v 2.589582 11.866280 -3.691400
v 3.092812 11.866280 -3.879699
v 2.978528 11.663128 -3.805519
v 2.662025 11.790808 -3.691400
v -1.079489 4.498990 -3.848525
v -2.936587 11.509729 -3.847263
v -1.079647 11.509729 -3.847264
v -2.785830 4.498990 -4.000000
v -1.230404 4.498990 -4.000000
v -2.642390 10.495642 -4.906183
v -2.785831 10.718952 -4.682872
v -2.785831 4.498990 -4.682872
v -1.079489 4.419633 -6.151475
v -3.084190 4.498990 -4.682872
v -3.084190 4.419633 -4.682872
v -2.948709 4.357337 -4.682872
v -2.948708 4.357337 -4.000000
v -1.230404 4.357337 -6.000000
v -3.084190 4.498990 -6.151474
v -3.084190 4.419633 -6.151474
v -2.948709 4.357337 -6.000000
v -2.948709 4.357337 -5.317128
v -3.084190 4.419633 -5.317128
v -3.084190 4.498990 -5.317128
v -2.785831 4.498990 -5.317128
v -2.785831 10.718952 -5.317128
v -2.642390 10.495642 -5.093817
v -1.230404 4.498990 -6.000000
v -2.785831 4.498990 -6.000000
v -1.079647 11.509729 -6.152737
v -2.936587 11.509729 -6.152737
v -1.079489 4.498990 -6.151475
v -3.084190 4.419633 -3.848524
v -3.084190 4.498990 -3.848524
v -1.230404 4.357337 -4.000000
v -1.079489 4.419633 -3.848525
v -2.642390 10.718952 -4.682872
v -2.642390 4.498989 -4.682872
v -2.642390 4.498989 -5.317128
v -2.642390 10.718952 -5.317128
v -2.437384 10.495642 -4.906183
v -2.437384 4.498989 -4.906183
v -2.437384 4.498989 -5.093817
v -2.437384 10.495642 -5.093817
v -2.642390 4.498989 -4.906183
v -2.642390 4.498989 -5.093817
v -1.002796 11.790808 -3.770774
v -3.013438 11.790808 -3.770774
v -3.013438 11.790808 -6.229226
v -1.002796 11.790808 -6.229226
v -1.387159 11.866280 -4.198458
v -2.629076 11.866280 -4.198458
v -2.629076 11.866280 -5.801542
v -1.387159 11.866280 -5.801542
v -1.387159 11.680745 -4.198458
v -2.629076 11.680745 -4.198458
v -2.629076 11.680745 -5.801542
v -1.387159 11.680745 -5.801542
v -3.342497 0.025668 -5.317128
v -3.342497 0.025668 -4.682872
v -3.342497 0.025668 -4.000000
v -1.230404 0.025668 -6.000000
v -3.342497 0.025668 -6.000000
v -1.230404 0.025668 -4.000000
v -3.338243 0.072455 -4.682872
v -1.230404 0.072455 -4.000000
v -3.338243 0.072455 -6.000000
v -3.338243 0.072455 -4.000000
v -3.338243 0.072455 -5.317128
v -1.230404 0.072455 -6.000000
v -2.785830 11.428638 -4.000000
v -2.869648 11.509729 -3.915990
v -2.861371 11.450163 -3.924460
v -1.146587 11.509729 -3.915990
v -1.230404 11.428638 -4.000000
v -1.154864 11.450163 -3.924460
v -1.146587 11.509729 -6.084010
v -1.230404 11.428638 -6.000000
v -1.154864 11.450163 -6.075541
v -2.869648 11.509729 -6.084009
v -2.785831 11.428638 -6.000000
v -2.861371 11.450163 -6.075541
v -0.923422 11.790808 -3.691400
v -3.092813 11.790808 -3.691400
v -3.092813 11.790808 -6.308600
v -0.923422 11.790808 -6.308600
v -0.923422 11.866280 -6.308600
v -0.923422 11.866280 -3.691400
v -3.092813 11.866280 -3.691400
v -3.092813 11.866280 -6.308600
v -2.785831 8.796577 -6.000000
v -2.785831 6.744318 -6.000000
v -2.785831 7.485145 -5.892431
v -2.621689 7.441289 -6.000000
v -2.785830 8.204383 -4.000000
v -2.785830 10.247400 -4.000000
v -2.613272 9.803239 -4.000000
v -2.785831 9.867790 -4.128705
v -3.176125 1.855757 -4.000000
v -3.031258 3.449285 -4.000000
v -3.077977 2.935378 -4.299377
v -3.053141 3.208572 -4.299377
v -3.091651 2.784970 -4.106974
v -3.054127 3.197736 -4.112462
v -2.957541 3.206419 -4.000000
v -2.923666 2.991320 -4.000000
v -3.004268 2.577323 -4.000000
v -3.061479 3.116863 -4.542356
v -2.962615 3.113623 -4.349157
v -2.963936 3.087563 -4.160670
v -2.997741 2.848160 -4.046809
v -2.987623 3.071623 -4.346488
v -2.989965 3.011643 -4.226347
v -1.843768 9.072354 -7.971713
v -1.913576 9.085528 -7.909320
v -1.971712 9.072356 -7.843768
vt 0.836477 1.512198
vt 0.521477 0.753418
vt 1.206477 1.512198
vt 0.215347 0.748568
vt 0.784653 0.748568
vt 0.783603 0.754418
vt 0.216397 0.754418
vt 1.167504 1.826497
vt 1.169123 1.838681
vt 0.873831 1.838681
vt 0.875450 1.826497
vt 0.432496 1.826497
vt 0.430877 1.838681
vt 0.325659 1.838681
vt 0.324040 1.826497
vt 0.768613 1.838681
vt 0.766994 1.826497
vt 0.675960 1.826497
vt 0.674341 1.838681
vt 0.569123 1.838681
vt 0.567504 1.826497
vt 0.768613 0.337926
vt 0.674341 0.337926
vt 0.674341 0.273529
vt 0.768613 0.273529
vt 0.233006 1.826497
vt 0.231388 1.838681
vt 0.478523 1.826497
vt 0.478523 1.838681
vt 0.126169 1.838681
vt 0.124550 1.826497
vt 1.169123 0.273529
vt 1.169123 0.337926
vt 0.873831 0.337926
vt 0.873831 0.273529
vt 0.521477 1.717189
vt 1.239970 1.717189
vt 1.237970 1.728189
vt 0.521477 1.728189
vt 0.772489 0.276303
vt 0.869955 0.276303
vt 0.869955 0.335152
vt 0.772489 0.335152
vt 0.670465 0.335152
vt 0.572999 0.335152
vt 0.572999 0.276303
vt 0.670465 0.276303
vt 1.360022 1.806995
vt 1.360022 1.815318
vt 0.521477 1.815318
vt 0.521477 1.806995
vt 0.670465 1.867851
vt 0.572999 1.867851
vt 0.726471 1.838681
vt 0.723697 1.867851
vt 0.664848 1.867851
vt 0.662074 1.838681
vt 0.726471 1.838681
vt 0.723697 1.867851
vt 0.664848 1.867851
vt 0.662074 1.838681
vt 0.427001 1.867851
vt 0.329535 1.867851
vt 0.337926 1.838681
vt 0.335152 1.867851
vt 0.276303 1.867851
vt 0.273529 1.838681
vt 0.337926 1.838681
vt 0.335152 1.867851
vt 0.276303 1.867851
vt 0.273529 1.838681
vt 0.227512 1.867851
vt 0.130045 1.867851
vt 0.869955 1.867851
vt 0.772489 1.867851
vt -0.169123 1.838681
vt -0.167504 1.826497
vt 0.521477 1.838681
vt 0.521477 1.826497
vt 0.569123 0.337926
vt 0.521477 0.337926
vt 0.521477 0.273529
vt 0.569123 0.273529
vt 0.943058 1.176396
vt 0.968183 1.176396
vt 0.968183 1.195874
vt 0.943058 1.195874
vt 1.099895 1.176396
vt 1.099895 1.195874
vt 1.074771 1.195874
vt 1.074771 1.176396
vt 0.221417 1.245218
vt 0.201665 1.195874
vt 0.201665 1.176396
vt 0.221417 1.176396
vt 0.943058 1.245218
vt 0.968183 1.245218
vt 0.031817 0.221417
vt 0.031817 0.201665
vt 0.056942 0.201665
vt 0.056942 0.221417
vt 0.221417 1.245218
vt 0.201665 1.195874
vt 0.201665 1.176396
vt 0.221417 1.176396
vt 0.778583 1.176396
vt 0.798335 1.176396
vt 0.798335 1.195874
vt 0.778583 1.245218
vt 1.074771 1.245218
vt 1.099895 1.245218
vt -0.099895 0.221417
vt -0.099895 0.201665
vt -0.074771 0.201665
vt -0.074771 0.221417
vt 0.778583 1.176396
vt 0.798335 1.176396
vt 0.798335 1.195874
vt 0.778583 1.245218
vt 0.806477 1.512198
vt 0.636477 1.512198
vt 0.521477 1.646540
vt 0.521477 1.512198
vt 0.606477 1.512198
vt 0.606477 1.646540
vt 0.636477 1.646540
vt 0.606477 1.646540
vt 0.606477 1.584250
vt 0.636477 1.584250
vt 0.521477 1.664716
vt 0.521477 1.645540
vt 1.121477 1.645540
vt -0.338600 0.282877
vt 0.478523 0.282877
vt 0.478523 0.289877
vt -0.331600 0.289877
vt -0.237970 1.718189
vt 0.478523 1.718189
vt 0.478523 1.735189
vt -0.237970 1.735189
vt 1.451078 0.170399
vt 1.406130 0.215347
vt 0.521477 0.215347
vt 0.521477 0.170399
vt 1.406130 0.748568
vt 1.405080 0.754418
vt 0.521477 0.754418
vt 0.521477 0.748568
vt -0.371581 0.249896
vt 0.478523 0.249896
vt 0.478523 0.261455
vt -0.360022 0.261455
vt -0.360022 0.261455
vt 0.478523 0.261455
vt 0.478523 0.275761
vt -0.345716 0.275761
vt -0.271477 0.350000
vt 0.478523 0.350000
vt 0.478523 0.361559
vt -0.259918 0.361559
vt 0.291780 1.512198
vt 0.321179 1.584250
vt 0.329128 1.646540
vt 0.303993 1.646540
vt 0.836477 1.646540
vt 0.806477 1.646540
vt 0.806477 1.584250
vt 0.836477 1.584250
vt 0.696007 1.646540
vt 0.670872 1.646540
vt 0.678821 1.584250
vt 0.708220 1.512198
vt 0.291780 1.512198
vt 0.321179 1.584250
vt 0.329128 1.646540
vt 0.303993 1.646540
vt 0.696007 1.646540
vt 0.670872 1.646540
vt 0.678821 1.584250
vt 0.708220 1.512198
vt 0.806477 1.646540
vt 0.636477 1.646540
vt 1.451078 0.743858
vt 0.521477 0.743858
vt 0.521477 0.731461
vt 1.452060 0.731461
vt 0.662074 1.838681
vt 0.660915 1.826497
vt 0.727630 1.826497
vt 0.726471 1.838681
vt 0.160015 0.726497
vt 0.215347 0.726497
vt 0.169417 0.731461
vt -0.121477 0.500000
vt 0.478523 0.289877
vt 0.478523 0.710123
vt -0.282392 1.826497
vt -0.283551 1.838681
vt 0.290230 1.867851
vt 0.274451 1.848379
vt 0.273529 1.838681
vt 0.662074 1.838681
vt 0.726471 1.838681
vt 0.723697 1.867851
vt 0.664848 1.867851
vt -0.172999 1.867851
vt -0.286325 1.867851
vt 0.302916 1.634691
vt 0.385000 1.512198
vt 0.385000 1.646540
vt 1.313996 1.358789
vt 1.337193 1.429735
vt 1.236477 1.512198
vt 1.206477 1.646540
vt 1.206477 1.584250
vt 1.236477 1.584250
vt 1.236477 1.646540
vt 0.303993 1.646540
vt 0.291780 1.512198
vt 0.321179 1.584250
vt 0.329127 1.646540
vt 0.708220 1.512198
vt 0.696007 1.646540
vt 0.670872 1.646540
vt 0.678821 1.584249
vt 1.371581 1.816473
vt 1.371581 1.826497
vt 0.521477 1.826497
vt 0.521477 1.816473
vt 0.521477 1.784030
vt 0.521477 1.757584
vt 1.321174 1.757584
vt 1.321174 1.784030
vt 0.478523 1.664716
vt 0.478523 1.740765
vt -0.338600 1.740765
vt -0.338600 1.664716
vt 0.521477 0.282877
vt 1.338600 0.282877
vt 1.331600 0.289877
vt 0.521477 0.289877
vt 0.521477 0.160015
vt 1.461462 0.160015
vt 1.452060 0.169417
vt 0.521477 0.169417
vt 1.237970 0.383507
vt 1.237970 0.616493
vt 0.521477 0.616493
vt 0.521477 0.383507
vt 1.271477 0.350000
vt 1.271477 0.650000
vt 1.237970 0.616493
vt 1.237970 0.383507
vt 0.521477 1.740765
vt 1.331600 1.740765
vt 1.331600 1.757584
vt 0.521477 1.757584
vt 0.521477 0.289877
vt 1.331600 0.289877
vt 1.321174 0.300303
vt 0.521477 0.300303
vt 0.478523 1.815318
vt -0.271477 1.815318
vt -0.271477 1.735189
vt 0.478523 1.735189
vt 0.478523 0.300302
vt -0.321174 0.300302
vt -0.345716 0.275761
vt 0.478523 0.275761
vt 0.521477 1.784030
vt 1.345716 1.784030
vt 1.345716 1.805637
vt 0.521477 1.805637
vt 0.478523 1.826497
vt -0.259918 1.826497
vt -0.259918 1.816473
vt 0.478523 1.816473
vt 1.349107 1.826497
vt 1.347948 1.838681
vt 1.345174 0.448478
vt 1.286325 0.448478
vt 1.286325 0.335152
vt 1.345174 0.290230
vt 1.237970 0.383507
vt 1.237970 0.616493
vt 0.521477 0.616493
vt 0.521477 0.383507
vt 0.660915 1.826497
vt 0.662074 1.838681
vt 0.547646 1.838681
vt 0.546027 1.826497
vt 1.172999 0.276303
vt 1.337348 0.276303
vt 1.172999 0.335152
vt -0.283551 1.838681
vt -0.286325 1.867851
vt -0.345174 1.867851
vt -0.347948 1.838681
vt 0.664848 1.867851
vt 0.551522 1.867851
vt 0.313398 1.365146
vt 0.261799 1.182407
vt 0.500000 0.753418
vt 0.415000 1.512198
vt 0.415000 1.646540
vt 0.385000 1.646540
vt 0.385000 1.584250
vt 0.415000 1.584250
vt 1.317484 1.646540
vt 1.292349 1.646540
vt 1.300298 1.584250
vt 1.329697 1.512198
vt -0.329697 1.512198
vt -0.300298 1.584250
vt -0.292349 1.646540
vt -0.317484 1.646540
vt 0.699697 1.757584
vt 0.699697 1.784030
vt 0.300303 1.784030
vt 0.300303 1.757584
vt 0.289877 1.740765
vt 0.710123 1.740765
vt 0.710123 1.757584
vt 0.289877 1.757584
vt -0.461462 0.839985
vt -0.461462 0.160015
vt -0.406130 0.215347
vt -0.406130 0.784653
vt 0.784653 0.748568
vt 0.783603 0.754418
vt 0.216397 0.754418
vt 0.215347 0.748568
vt 1.461462 0.839985
vt 1.452060 0.830583
vt 1.331600 0.710123
vt 1.321174 0.699697
vt 0.383507 1.718189
vt 0.616493 1.718189
vt 0.616493 1.735189
vt 0.383507 1.735189
vt -0.321174 0.699697
vt -0.345716 0.724239
vt -0.271477 0.650000
vt -0.259918 0.638441
vt 0.585000 1.512198
vt 0.275761 1.784030
vt 0.724239 1.784030
vt 0.724239 1.805637
vt 0.275761 1.805637
vt 1.259918 0.638441
vt 1.259918 0.361559
vt 1.371581 0.701735
vt 0.453973 1.826497
vt 0.452354 1.838681
vt 0.272370 1.826497
vt 0.784653 0.726497
vt 0.707093 1.757584
vt 0.707093 1.784030
vt 0.688210 1.784030
vt 0.688210 1.757584
vt 0.302907 1.757584
vt 0.452354 1.757584
vt 0.452354 1.784030
vt 0.302907 1.784030
vt -0.328807 1.757584
vt -0.310507 1.757584
vt -0.310507 1.784030
vt -0.328807 1.784030
vt 1.328808 1.757584
vt 1.328808 1.784030
vt 1.318807 1.784030
vt 1.318807 1.757584
vt 1.169123 1.784030
vt 1.169123 1.757584
vt 0.160015 0.726497
vt 0.839985 0.726497
vt 0.839985 0.731461
vt 0.160015 0.731461
vt 0.282877 1.740765
vt 0.282877 1.664716
vt 0.717123 1.664716
vt 0.717123 1.740765
vt 1.338600 0.717123
vt 1.331600 0.710123
vt 0.521477 0.650000
vt 0.521477 0.616493
vt 1.451078 0.829601
vt 1.406130 0.784653
vt 0.829601 0.743858
vt 0.170399 0.743858
vt 0.169417 0.731461
vt 0.830582 0.731461
vt 0.650000 1.815318
vt 0.350000 1.815318
vt 0.350000 1.735189
vt 0.650000 1.735189
vt -0.338600 0.717123
vt -0.331600 0.710123
vt 0.710123 1.645540
vt 0.710123 1.664716
vt 0.289877 1.664716
vt 0.289877 1.645540
vt 0.585000 1.646540
vt 0.415000 1.646540
vt 0.638441 1.826497
vt 0.361559 1.826497
vt 0.361559 1.816473
vt 0.638441 1.816473
vt 0.452354 1.838681
vt 0.453973 1.826497
vt 1.347948 0.547646
vt 1.283551 0.547646
vt 1.283551 0.452354
vt 1.347948 0.452354
vt 0.546027 1.826497
vt 0.547646 1.838681
vt 0.381507 1.717189
vt 0.618493 1.717189
vt 0.616493 1.728189
vt 0.383507 1.728189
vt -0.331600 0.710123
vt -0.331600 0.289877
vt 0.291780 1.512198
vt 0.222800 0.753418
vt 0.777200 0.753418
vt 0.708220 1.512198
vt 0.478523 0.160015
vt 0.478523 0.215347
vt 0.303993 1.646540
vt 0.696007 1.646540
vt 0.478523 0.784653
vt 0.521477 0.249896
vt 1.371581 0.249896
vt 0.521477 0.361559
vt 1.405080 0.783603
vt 0.521477 0.783603
vt 0.521477 0.216397
vt 1.405080 0.216397
vt -0.121477 0.289877
vt 0.836477 1.646540
vt 1.206477 1.646540
vt 0.521477 0.726497
vt 1.461462 0.726497
vt 1.461462 0.731461
vt 0.521477 0.731461
vt 0.163523 1.512198
vt -0.206477 1.512198
vt 0.478523 0.753418
vt -0.167504 1.826497
vt 0.124550 1.826497
vt 0.126169 1.838681
vt -0.169123 1.838681
vt 0.567504 1.826497
vt 0.675960 1.826497
vt 0.674341 1.838681
vt 0.569123 1.838681
vt 0.233006 1.826497
vt 0.231387 1.838681
vt 0.324040 1.826497
vt 0.432496 1.826497
vt 0.430877 1.838681
vt 0.325659 1.838681
vt 0.768613 0.662074
vt 0.768613 0.726471
vt 0.674341 0.726471
vt 0.674341 0.662074
vt 0.766994 1.826497
vt 0.768613 1.838681
vt 0.521477 1.838681
vt 0.521477 1.826497
vt 0.875450 1.826497
vt 0.873831 1.838681
vt 1.169123 0.726471
vt 0.873831 0.726471
vt 0.873831 0.662074
vt 1.169123 0.662074
vt -0.237970 1.728189
vt -0.239970 1.717189
vt 0.478523 1.717189
vt 0.478523 1.728189
vt 0.869955 0.723697
vt 0.772489 0.723697
vt 0.772489 0.664848
vt 0.869955 0.664848
vt 0.572999 0.664848
vt 0.670465 0.664848
vt 0.670465 0.723697
vt 0.572999 0.723697
vt 0.427001 1.867851
vt 0.329535 1.867851
vt 0.273529 1.838681
vt 0.337926 1.838681
vt 0.335152 1.867851
vt 0.276303 1.867851
vt 0.273529 1.838681
vt 0.337926 1.838681
vt 0.335152 1.867851
vt 0.276303 1.867851
vt 0.670465 1.867851
vt 0.572999 1.867851
vt 0.662074 1.838681
vt 0.726471 1.838681
vt 0.723697 1.867851
vt 0.664848 1.867851
vt 0.662074 1.838681
vt 0.726471 1.838681
vt 0.723697 1.867851
vt 0.664848 1.867851
vt 0.869955 1.867851
vt 0.772489 1.867851
vt 0.227512 1.867851
vt 0.130045 1.867851
vt 1.169123 1.838681
vt 1.167504 1.826497
vt 0.478523 1.826497
vt 0.478523 1.838681
vt 0.569123 0.662074
vt 0.569123 0.726471
vt 0.521477 0.726471
vt 0.521477 0.662074
vt 0.616493 1.728189
vt 0.383507 1.728189
vt 0.381507 1.717189
vt 0.618493 1.717189
vt 0.056942 1.176396
vt 0.056942 1.195874
vt 0.031817 1.195874
vt 0.031817 1.176396
vt -0.099895 1.176396
vt -0.074771 1.176396
vt -0.074771 1.195874
vt -0.099895 1.195874
vt 0.778583 1.245218
vt 0.778583 1.176396
vt 0.798335 1.176396
vt 0.798335 1.195874
vt 0.056942 1.245218
vt 0.031817 1.245218
vt 0.031817 0.778583
vt 0.056942 0.778583
vt 0.056942 0.798335
vt 0.031817 0.798335
vt 0.778583 1.245218
vt 0.778583 1.176396
vt 0.798335 1.176396
vt 0.798335 1.195874
vt 0.221417 1.176396
vt 0.221417 1.245218
vt 0.201665 1.195874
vt 0.201665 1.176396
vt -0.074771 1.245218
vt -0.099895 1.245218
vt -0.099895 0.778583
vt -0.074771 0.778583
vt -0.074771 0.798335
vt -0.099895 0.798335
vt 0.221417 1.176396
vt 0.221417 1.245218
vt 0.201665 1.195874
vt 0.201665 1.176396
vt 0.193523 1.512198
vt 0.363523 1.512198
vt 0.478523 1.646540
vt 0.393523 1.646540
vt 0.393523 1.512198
vt 0.478523 1.512198
vt 0.363523 1.646540
vt 0.363523 1.584250
vt 0.393523 1.584250
vt 0.393523 1.646540
vt -0.121477 1.645540
vt 0.478523 1.664716
vt -0.331600 1.664716
vt 0.478523 0.710123
vt 0.478523 0.717123
vt 1.237970 1.718189
vt 1.237970 1.735189
vt 0.521477 1.735189
vt 0.521477 1.718189
vt 0.521477 0.829601
vt 0.521477 0.784653
vt -0.406130 0.748568
vt 0.478523 0.748568
vt 0.478523 0.754418
vt -0.405080 0.754418
vt 0.478523 0.638441
vt 0.478523 0.650000
vt 0.708220 1.512198
vt 0.696007 1.646540
vt 0.670872 1.646540
vt 0.678821 1.584250
vt 0.163523 1.646540
vt 0.163523 1.584250
vt 0.193523 1.584250
vt 0.193523 1.646540
vt 0.303993 1.646540
vt 0.291780 1.512198
vt 0.321179 1.584250
vt 0.329128 1.646540
vt 0.700248 1.599889
vt 0.670872 1.646540
vt 0.678821 1.584250
vt -0.451078 0.743858
vt -0.452060 0.731461
vt 0.478523 0.731461
vt 0.478523 0.743858
vt 0.337926 1.838681
vt 0.273529 1.838681
vt 0.272370 1.826497
vt 0.339085 1.826497
vt 0.710123 1.664716
vt 0.650000 1.735189
vt 0.616493 1.718189
vt 1.282392 1.826497
vt 1.283551 1.838681
vt 1.345174 0.551522
vt 1.345174 0.692325
vt 1.286325 0.664848
vt 1.286325 0.551522
vt 0.337926 1.838681
vt 0.335152 1.867851
vt 0.276303 1.867851
vt 0.273529 1.838681
vt 1.286325 1.867851
vt 1.172999 1.867851
vt -0.236477 1.512198
vt -0.340474 1.193721
vt -0.206477 1.646540
vt -0.236477 1.646540
vt -0.236477 1.584250
vt -0.206477 1.584250
vt 0.696007 1.646540
vt 0.670872 1.646540
vt 0.678821 1.584250
vt 0.708220 1.512198
vt 0.291780 1.512198
vt 0.321179 1.584249
vt 0.329128 1.646540
vt 0.303993 1.646540
vt -0.321174 1.757584
vt 0.478523 1.757584
vt 0.478523 1.784030
vt -0.321174 1.784030
vt 0.521477 1.664716
vt 1.338600 1.664716
vt 1.338600 1.740765
vt 0.521477 1.740765
vt 0.521477 0.717123
vt 0.521477 0.710123
vt 0.521477 0.350000
vt 0.521477 0.383507
vt 0.521477 0.839985
vt 0.521477 0.830583
vt 0.478523 1.740765
vt 0.478523 1.757584
vt -0.331600 1.757584
vt -0.331600 1.740765
vt 0.521477 0.710123
vt 0.521477 0.699697
vt 0.521477 1.815318
vt 0.521477 1.735189
vt 1.271477 1.735189
vt 1.271477 1.815318
vt 0.478523 0.699697
vt 0.478523 0.724239
vt 0.478523 1.784030
vt 0.478523 1.805637
vt -0.345716 1.805637
vt -0.345716 1.784030
vt 0.521477 1.826497
vt 0.521477 1.816473
vt 1.259918 1.816473
vt 1.259918 1.826497
vt -0.347948 1.838681
vt -0.349107 1.826497
vt 1.316984 0.712746
vt 1.313678 0.723697
vt -0.333692 1.856708
vt -0.347465 1.843767
vt 0.339085 1.826497
vt 0.337926 1.838681
vt 1.334223 0.695605
vt 1.283551 1.838681
vt 1.347948 1.838681
vt 1.345174 1.867851
vt 1.286325 1.867851
vt 0.448478 1.867851
vt 0.335152 1.867851
vt 0.709077 1.194598
vt 0.729326 1.280024
vt 0.615000 1.512198
vt 0.585000 1.646540
vt 0.585000 1.584250
vt 0.615000 1.584250
vt 0.615000 1.646540
vt -0.317484 1.646540
vt -0.329697 1.512198
vt -0.300298 1.584250
vt -0.292349 1.646540
vt 1.329697 1.512198
vt 1.317484 1.646540
vt 1.292349 1.646540
vt 1.300298 1.584250
vt 1.172999 0.723697
vt 1.172999 0.664848
vt 0.727630 1.826497
vt 0.726471 1.838681
vt 0.725988 1.843767
vt 0.711691 1.856622
vt 0.292907 1.757584
vt 0.311790 1.757584
vt 0.311790 1.784030
vt 0.292907 1.784030
vt 0.697093 1.757584
vt 0.697093 1.784030
vt 0.547646 1.784030
vt 0.547646 1.757584
vt 1.328808 1.757584
vt 1.328808 1.784030
vt 1.310507 1.784030
vt 1.310507 1.757584
vt -0.328807 1.757584
vt -0.318807 1.757584
vt -0.318807 1.784030
vt -0.328807 1.784030
vt -0.169123 1.757584
vt -0.169123 1.784030
vt 0.478523 0.839985
vt 1.322739 0.750104
vt 1.339715 0.741527
vt -0.121477 0.710123
vt 0.301244 1.616303
vt 0.321179 1.584250
vt 0.329128 1.646540
vt 0.478523 0.726497
vt 0.478523 0.731461
vt -0.461462 0.731461
vt -0.461462 0.726497
vt 0.839985 0.726497
vt 0.839985 0.731461
vt 0.830583 0.731461
vt 1.305537 0.303993
vt 1.318561 0.302916
vt 1.317484 0.315940
vt 1.318561 1.634691
vt 1.236477 1.646540
vt 0.697171 1.633733
vt 0.691358 1.635050
vt 0.684377 1.633733
vt 0.699498 1.608138
vt 0.657289 1.646540
vt 0.615000 1.646540
vt -0.236477 1.646540
vt -0.320975 1.608138
vt -0.312409 1.635050
vt -0.305854 1.633733
vt -0.278766 1.646540
vt -0.306144 1.646540
vt 0.152472 1.646540
vt 0.163523 1.616303
vt 0.163523 1.646540
vt -0.206477 1.646540
vt 0.682428 1.646540
vt 0.696007 1.646540
vt 0.193523 1.599889
vt 0.363523 1.646540
vt -0.350637 1.815318
vt -0.355845 1.806995
vt 0.478523 1.806995
vt 0.478523 1.815318
vt -0.360022 0.733216
vt -0.345716 0.724239
vt 0.733216 1.806995
vt 0.728839 1.815318
vt 0.261455 1.815318
vt 0.261455 1.806995
vt -0.371581 0.715612
vt 0.478523 0.738545
vt -0.332081 0.750104
vt -0.350638 0.738545
vt 0.732950 1.826497
vt 0.720959 1.826497
vt -0.322739 1.826497
vt -0.332081 1.816473
vt 0.478523 1.816473
vt 0.478523 1.826497
vt 0.715612 1.816473
vt 0.701735 1.826497
vt 0.249896 1.826497
vt 0.249896 1.816473
vt -0.355845 0.738545
vt 0.478523 0.724239
vt 0.478523 0.738545
vt -0.339715 1.826497
vt -0.346668 1.815939
vt -0.352043 1.826497
vt 0.738545 1.815318
vt 0.744762 1.815939
vt 0.741527 1.826497
vt 0.738545 1.806995
vt 0.723750 1.816153
vt -0.368386 1.816154
vt -0.360022 1.815318
vt -0.363614 1.826497
vt 1.346242 0.711691
vt 1.347465 0.725988
vt 1.333692 0.724757
vt 1.324153 0.712746
vt 1.334223 0.702848
vt 0.276303 1.867851
vt 1.347026 1.848379
vt 1.337348 1.867851
vt 0.294721 1.334332
vt 0.277834 1.358789
vt 1.329951 1.324235
vt 1.345867 1.334331
vt 0.274692 1.324235
vt 0.284283 1.429735
vt 0.280028 1.382926
vt 0.727934 1.166420
vt 0.737172 1.193721
vt -0.361131 1.166420
vt -0.372246 1.044155
vt -0.350755 1.146210
vt 0.793659 1.877470
vt 0.797853 1.892810
vt 0.779692 1.905578
vt 0.921477 1.869361
vt 0.989764 1.798393
vt 1.053190 1.798393
vt 1.121477 1.869361
vt 0.921477 0.232698
vt 0.931387 0.221417
vt 0.941536 0.221417
vt 0.921477 0.258140
vt 0.010236 0.205129
vt -0.053190 0.205129
vt -0.053190 0.191581
vt 0.010236 0.191581
vt 0.093797 0.392035
vt -0.136751 0.392035
vt -0.129878 0.385341
vt 0.086924 0.385341
vt 0.221417 1.798393
vt 0.221417 1.176396
vt 0.235761 1.176396
vt 0.235761 1.798393
vt 0.093671 0.191581
vt 0.093671 0.392051
vt 0.078523 0.376960
vt 0.078523 0.205129
vt 1.121477 0.221417
vt 1.136625 0.204017
vt 1.136625 0.392051
vt 1.121477 0.376960
vt 0.906330 1.168461
vt 0.989764 1.168461
vt 0.989764 1.176396
vt 0.906330 1.176396
vt 0.989764 0.221417
vt 0.921477 0.221417
vt 0.906330 0.191581
vt 0.989764 0.191581
vt -0.053190 0.235761
vt -0.053190 0.221417
vt 0.010236 0.221417
vt 0.010236 0.235761
vt 0.930831 0.837268
vt 0.921477 0.799602
vt 0.989764 0.733743
vt 1.053190 0.191581
vt 1.053190 0.221417
vt 0.764239 1.176396
vt 0.764239 1.776062
vt 0.743738 1.776062
vt 0.743738 1.176396
vt 1.053190 1.168461
vt 1.053190 1.176396
vt 1.053190 1.176396
vt 1.121477 1.232632
vt 1.101929 1.299563
vt -0.136624 0.212885
vt -0.121477 0.205129
vt -0.121477 0.376960
vt -0.136624 0.392051
vt 0.078523 1.176396
vt 0.078523 1.869361
vt -0.121477 1.869361
vt -0.121477 1.176396
vt 1.121477 1.162231
vt 1.053190 1.162231
vt 1.053190 0.733743
vt 1.121477 0.733743
vt 0.221417 1.486121
vt 0.234680 1.300224
vt 0.376960 1.176396
vt 0.204017 1.176396
vt 0.212885 1.168461
vt 0.392051 1.168461
vt 0.392051 1.176396
vt 1.108793 0.191581
vt 0.399720 1.905578
vt 0.198656 1.905578
vt 0.206341 1.877470
vt 0.392035 1.877470
vt 0.921477 0.376960
vt 0.906330 0.392051
vt 0.808419 1.176396
vt 0.607949 1.176396
vt 0.607949 1.168461
vt 0.808419 1.168461
vt 0.086924 0.213035
vt -0.129878 0.213035
vt -0.136751 0.206341
vt 0.093797 0.206341
vt 0.778583 1.798393
vt 0.764239 1.798393
vt 0.764239 1.176396
vt 0.778583 1.176396
vt 1.102153 1.168461
vt 1.108793 1.176396
vt 0.101446 1.905578
vt -0.144399 1.905578
vt -0.136750 1.877470
vt 0.093797 1.877470
vt 1.012095 1.776062
vt 1.030859 1.776062
vt 1.053190 1.798393
vt 0.989764 1.798393
vt 1.012095 1.176396
vt 0.989764 1.176396
vt 1.030859 1.176396
vt 1.053190 1.176396
vt 1.012095 0.235761
vt 1.030859 0.235761
vt 1.030859 0.256262
vt 1.012095 0.256262
vt -0.030859 0.235761
vt -0.012095 0.235761
vt -0.012095 0.256261
vt -0.030859 0.256261
vt 1.030859 1.176396
vt 1.030859 1.776062
vt 1.012095 1.776062
vt 1.012095 1.176396
vt 0.989764 0.235761
vt 1.053190 0.235761
vt -0.144400 0.198656
vt -0.144400 0.399720
vt -0.152337 0.407658
vt -0.152337 0.190719
vt 0.101446 0.399720
vt 0.109383 0.407658
vt 1.101631 1.913125
vt 0.941323 1.913125
vt 0.941323 1.894572
vt 1.101631 1.894572
vt 0.909447 0.190719
vt 1.152337 0.190719
vt 1.101631 0.237092
vt 1.152337 0.407658
vt 1.101631 0.361284
vt 0.890617 0.407658
vt 0.941323 0.361284
vt 0.941323 0.762908
vt 0.890617 0.809281
vt 0.890617 0.592342
vt 0.941323 0.638716
vt 0.941323 0.361284
vt 0.941323 0.237092
vt 1.101631 0.237092
vt 1.101631 0.361284
vt 0.058677 1.913125
vt -0.101631 1.913126
vt -0.101631 1.894572
vt 0.058677 1.894572
vt 0.762908 1.913125
vt 0.638716 1.913125
vt 0.638716 1.894572
vt 0.762908 1.894572
vt 0.361284 1.913125
vt 0.237092 1.913125
vt 0.237092 1.894572
vt 0.361284 1.894572
vt 0.235761 1.776062
vt 0.235761 1.176396
vt 0.256262 1.176396
vt 0.256262 1.776062
vt -0.136624 1.168461
vt 0.093671 1.168461
vt 0.093671 1.176396
vt -0.136624 1.176396
vt -0.121477 0.729064
vt 0.078523 0.729064
vt 0.078523 0.733743
vt -0.121477 0.733743
vt 0.989764 0.729064
vt 1.053190 0.729064
vt 0.623040 0.729064
vt 0.834250 0.729064
vt 0.833824 0.733743
vt 0.623040 0.733743
vt 0.165750 0.729064
vt 0.376960 0.729064
vt 0.376960 0.733743
vt 0.166176 0.733743
vt 0.376960 1.162231
vt 0.205129 1.162231
vt 0.078523 1.162231
vt -0.121477 1.162231
vt 0.921477 0.733743
vt 0.921477 0.729064
vt 1.121477 0.729064
vt 0.989764 1.162231
vt 0.816405 0.925350
vt 0.794871 1.162231
vt 0.623040 1.162231
vt 0.786965 1.877470
vt 0.614659 1.877470
vt 0.615486 1.871514
vt 0.786137 1.871514
vt 0.086077 0.213863
vt 0.086077 0.384514
vt 0.078523 0.376960
vt 0.078523 0.221417
vt 0.086924 1.877470
vt -0.129878 1.877470
vt -0.129031 1.871514
vt 0.086077 1.871514
vt -0.129031 0.384514
vt -0.121477 0.376960
vt -0.121477 0.221417
vt -0.129031 0.213863
vt 0.213863 1.871514
vt 0.384514 1.871514
vt 0.385341 1.877470
vt 0.213035 1.877470
vt 1.129878 1.877470
vt 0.913076 1.877470
vt 0.913923 1.871514
vt 1.129031 1.871514
vt 0.190719 1.905578
vt 0.407658 1.905578
vt 0.407658 1.913125
vt 0.190719 1.913125
vt -0.152337 1.905578
vt 0.109383 1.905578
vt 0.109383 1.913125
vt -0.152337 1.913125
vt 0.592342 1.905578
vt 0.766203 1.905578
vt 0.758958 1.913125
vt 0.592342 1.913125
vt 0.101446 0.220308
vt 0.109383 0.233797
vt 0.941536 1.616389
vt 0.933725 1.578023
vt 0.989764 1.176396
vt 0.778583 1.616389
vt 0.778583 1.626390
vt 0.761182 1.627407
vt 0.741860 1.616450
vt 0.778583 1.674899
vt 0.623040 1.869361
vt 0.765272 1.578333
vt 0.778583 1.508071
vt 0.778583 1.578023
vt 0.778583 1.609320
vt 0.767302 1.606728
vt 1.121477 1.300224
vt 1.121477 1.486121
vt 0.824413 0.837268
vt 0.804498 0.836318
vt 0.827837 0.799602
vt -0.102153 0.191581
vt 0.909447 1.913125
vt 0.908536 1.905578
vt 1.152337 1.905578
vt 1.152337 1.913125
vt 0.091464 0.190719
vt 0.092898 0.198656
vt 1.136751 1.877470
vt 0.907102 1.905578
vt 0.906203 1.877470
vt 0.801344 1.905578
vt 0.809281 1.913125
vt 0.782816 1.913125
vt 0.809281 1.905578
vt -0.121477 0.794871
vt -0.053190 0.794871
vt -0.053190 0.808419
vt -0.136624 0.808419
vt 0.399720 1.905578
vt 0.198656 1.905578
vt 0.206341 1.877470
vt 0.392035 1.877470
vt 0.078523 1.869361
vt -0.121477 1.869361
vt -0.053190 1.798393
vt 0.010236 1.798393
vt 0.065653 1.713276
vt 0.078523 1.751237
vt 0.010236 0.794871
vt 0.010236 0.808419
vt 0.093797 0.607965
vt 0.086924 0.614659
vt -0.129878 0.614659
vt -0.136751 0.607965
vt 0.778583 1.798393
vt 0.764239 1.798393
vt 0.764239 1.176396
vt 0.778583 1.176396
vt 0.093671 0.808419
vt 0.078523 0.794871
vt 0.078523 0.623040
vt 0.093671 0.607949
vt -0.136624 1.168461
vt -0.053190 1.168461
vt -0.053190 1.176396
vt -0.136624 1.176396
vt 0.093671 1.168461
vt 0.093671 1.176396
vt 0.010236 1.176396
vt 0.010236 1.168461
vt 0.989764 0.778583
vt 0.989764 0.808419
vt 0.906329 0.808419
vt 0.921477 0.778583
vt -0.053190 0.764239
vt 0.010236 0.764239
vt 0.010236 0.778583
vt -0.053190 0.778583
vt 0.010236 1.162231
vt 0.010236 0.733743
vt 0.024287 1.038184
vt 0.078523 0.733743
vt 0.078523 0.912073
vt 0.048585 1.047355
vt 0.067277 1.046271
vt 0.078523 1.071426
vt 0.078523 1.162231
vt 1.053190 0.778583
vt 1.053190 0.808419
vt 0.235761 1.176396
vt 0.256262 1.176396
vt 0.256262 1.776062
vt 0.235761 1.776062
vt -0.053190 1.176396
vt -0.110720 1.475012
vt 0.808419 1.176396
vt 0.607949 1.176396
vt 0.607949 1.168461
vt 0.808419 1.168461
vt 0.101446 1.905578
vt -0.144399 1.905578
vt -0.136750 1.877470
vt 0.093797 1.877470
vt 0.921477 1.176396
vt 1.121477 1.176396
vt 1.121477 1.869361
vt 0.921477 1.869361
vt -0.121477 0.733743
vt -0.053190 0.733743
vt -0.053190 1.162231
vt -0.121477 1.162231
vt 0.762169 1.470626
vt 0.778583 1.606155
vt 0.623040 1.869361
vt 0.890617 0.241042
vt 0.904666 0.217184
vt 0.941323 0.237092
vt 1.121477 0.778583
vt 1.121477 0.623040
vt 1.136625 0.607949
vt 1.136624 0.808419
vt -0.136624 0.607949
vt -0.121477 0.623040
vt 0.600280 1.905578
vt 0.607965 1.877470
vt 0.793659 1.877470
vt 0.801344 1.905578
vt 0.906330 0.607949
vt 0.921477 0.623040
vt 0.191581 1.176396
vt 0.191581 1.168461
vt 0.392051 1.168461
vt 0.392051 1.176396
vt 0.086924 0.786965
vt 0.093797 0.793659
vt -0.136751 0.793659
vt -0.129878 0.786965
vt 0.221417 1.798393
vt 0.221417 1.176396
vt 0.235761 1.176396
vt 0.235761 1.798393
vt 0.898554 1.905578
vt 0.906203 1.877470
vt 1.136751 1.877470
vt 1.144400 1.905578
vt -0.012095 1.776062
vt 0.010236 1.798393
vt -0.053190 1.798393
vt -0.030859 1.776062
vt -0.012095 1.176396
vt 0.010236 1.176396
vt -0.053190 1.176396
vt -0.030859 1.176396
vt 1.012095 0.764239
vt 1.012095 0.743738
vt 1.030859 0.743738
vt 1.030859 0.764239
vt -0.030859 0.764239
vt -0.030859 0.743738
vt -0.012095 0.743738
vt -0.012095 0.764239
vt -0.030859 1.176396
vt -0.012095 1.176396
vt -0.012095 1.776062
vt -0.030859 1.776062
vt 0.989764 0.764239
vt 1.053190 0.764239
vt -0.144400 0.801344
vt -0.152337 0.809281
vt -0.152337 0.592342
vt -0.144400 0.600280
vt 0.109383 0.592342
vt 0.101446 0.600280
vt -0.101631 1.913125
vt -0.101631 1.894572
vt 0.058677 1.894572
vt 0.058677 1.913125
vt 1.101631 0.762908
vt 1.152337 0.809281
vt 1.101631 0.638716
vt 1.152337 0.592342
vt 0.941323 0.638716
vt 1.101631 0.638716
vt 1.101631 0.762908
vt 0.941323 0.762908
vt 0.941323 1.913125
vt 0.941323 1.894572
vt 1.101631 1.894572
vt 1.101631 1.913125
vt 0.237092 1.913125
vt 0.237092 1.894572
vt 0.361284 1.894572
vt 0.361284 1.913125
vt 0.638716 1.913125
vt 0.638716 1.894572
vt 0.762908 1.894572
vt 0.762908 1.913125
vt 0.764239 1.776062
vt 0.743738 1.776062
vt 0.743738 1.176396
vt 0.764239 1.176396
vt 1.136625 1.168461
vt 1.136625 1.176396
vt 0.906330 1.176396
vt 0.906330 1.168461
vt 1.121477 0.729064
vt 1.121477 0.733743
vt 0.921477 0.733743
vt 0.921477 0.729064
vt 0.010236 0.729064
vt -0.053190 0.729064
vt 0.376960 0.729064
vt 0.376960 0.733743
vt 0.166176 0.733743
vt 0.165750 0.729064
vt 0.834250 0.729064
vt 0.833824 0.733743
vt 0.623040 0.733743
vt 0.623040 0.729064
vt 0.794871 1.162231
vt 0.623040 1.162231
vt 1.121477 1.162231
vt 0.921477 1.162231
vt 0.078523 0.729064
vt -0.121477 0.729064
vt 0.376960 1.162231
vt 0.207633 1.025629
vt 0.199573 0.984230
vt 0.213035 1.877470
vt 0.213863 1.871514
vt 0.384514 1.871514
vt 0.385341 1.877470
vt 0.086077 0.786137
vt 0.078523 0.778583
vt 0.078523 0.623040
vt 0.086077 0.615486
vt 0.913076 1.877470
vt 0.913923 1.871514
vt 1.129031 1.871514
vt 1.129878 1.877470
vt -0.121477 0.623040
vt -0.129031 0.615486
vt -0.121477 0.778583
vt -0.129031 0.786137
vt 0.786137 1.871514
vt 0.786965 1.877470
vt 0.614659 1.877470
vt 0.615486 1.871514
vt -0.129878 1.877470
vt -0.129031 1.871514
vt 0.086077 1.871514
vt 0.086924 1.877470
vt 0.376960 1.176396
vt 0.376960 1.869361
vt 0.221417 1.546936
vt 0.101446 0.801344
vt 0.109383 0.809281
vt 0.809281 1.905578
vt 0.809281 1.913125
vt 0.592342 1.913125
vt 0.592342 1.905578
vt 1.152337 1.905578
vt 1.152337 1.913125
vt 0.890617 1.913125
vt 0.890617 1.905578
vt 0.109383 1.905578
vt 0.109383 1.913125
vt -0.152337 1.913125
vt -0.152337 1.905578
vt 0.407658 1.905578
vt 0.407658 1.913125
vt 0.190719 1.913125
vt 0.190719 1.905578
vt 0.778583 1.475012
vt 0.778583 1.400929
vt 0.238673 1.706821
vt 0.221417 1.751237
vt 0.221417 1.713276
vt 0.062456 1.035254
vt 0.055888 1.027662
vt 0.073842 1.011313
vt 0.043607 1.037860
vt 0.067826 1.004994
vt 0.048585 1.020035
vt 0.043874 1.033660
vt 0.078523 0.795754
vt 0.067277 0.805413
vt 0.062456 0.796394
vt 0.078523 1.025629
vt 0.200226 1.011313
vt 0.190835 1.004994
vt 0.182388 0.912073
vt 0.078523 0.984230
vt 0.078523 1.047139
vt 0.043607 0.796261
vt 0.048585 0.805314
vt 0.024287 0.806148
vt 0.684667 1.646540
vt 1.331600 1.645540
vt 1.331600 1.664716
vt 0.170399 0.743858
vt 0.160015 0.731461
vt 0.448478 1.867851
vt 0.315940 1.646540
vt 0.291780 1.512198
vt 1.329697 1.512198
vt 1.398677 0.753418
vt 1.359678 1.182407
vt 1.331757 1.382926
vt 0.222800 0.753418
vt 1.363614 0.720959
vt 1.352043 0.732950
vt -0.331600 1.645540
vt 0.478523 1.645540
vt 0.708220 1.512198
vt 0.275761 1.805637
vt 0.275761 1.784030
vt 0.300303 1.784030
vt 0.300303 1.757584
vt 0.289877 1.757584
vt 0.289877 1.740765
vt 0.282877 1.740765
vt 0.282877 1.664716
vt 0.289877 1.664716
vt 0.289877 1.645540
vt 0.383507 1.718189
vt 0.710123 1.645540
vt 0.350000 1.735189
vt 0.717123 1.664716
vt 0.717123 1.740765
vt 0.710123 1.740765
vt 0.710123 1.757584
vt 0.699697 1.757584
vt 0.261455 1.815318
vt 0.261455 1.806995
vt 0.249896 1.826497
vt 0.249896 1.816473
vt 0.361559 1.816473
vt 0.361559 1.826497
vt 0.350000 1.815318
vt 0.383507 1.735189
vt 0.699697 1.784030
vt 0.724239 1.784030
vt 0.724239 1.805637
vt 0.738545 1.806995
vt 0.738545 1.815318
vt 0.750104 1.816473
vt 0.750104 1.826497
vt 0.638441 1.826497
vt 0.650000 1.815318
vt 0.638441 1.816473
vt 0.616493 1.735189
vt -0.329697 1.512198
vt -0.350804 1.280024
vt -0.398677 0.753419
vt -0.313677 1.867851
vt -0.172999 1.867851
vt 0.708220 1.512198
vt 0.777200 0.753418
vt 0.750769 1.044155
vt 0.551522 1.867851
vt 0.692325 1.867851
vt 0.521477 0.750104
vt 0.521477 0.638441
vt 0.315044 1.646540
vt 0.291780 1.512198
vt 0.829601 0.743858
vt 1.305537 1.646540
vt 0.207102 1.646540
vt -0.360022 0.728839
vt -0.368386 0.723750
vt 0.478523 0.750104
vt -0.346668 0.744762
vt 1.172999 1.867851
vt 0.600280 1.905578
vt 0.607965 1.877470
vt 0.921477 0.925350
vt 0.921477 1.162231
vt 1.121477 1.176396
vt 0.376960 1.869361
vt 0.221417 1.869361
vt 0.221417 1.232632
vt 0.221417 1.176396
vt 0.921477 1.674899
vt 0.932113 1.626390
vt 0.931387 1.609320
vt 0.921477 1.508071
vt 0.921477 1.176396
vt 0.778583 1.869361
vt 0.623040 1.176396
vt 0.778583 1.176396
vt 1.136625 1.168461
vt 1.136625 1.176396
vt 1.144400 1.905578
vt 0.902029 1.892810
vt 0.010236 1.176396
vt 0.078523 1.546936
vt 0.078523 1.176396
vt -0.121477 1.606155
vt -0.121477 1.400929
vt -0.121477 1.176396
vt 0.778583 1.869361
vt 0.623040 1.176396
vt 0.778583 1.176396
vt 0.205129 1.162231
vt 0.196874 1.071426
vt 0.204246 1.047139
vt 0.221417 1.869361
vt 0.221417 1.176396
vn 0.9959 0.0906 -0.0000
vn 0.9959 0.0905 -0.0000
vn 0.0000 0.0000 1.0000
vn 0.9955 0.0947 0.0000
vn -0.9955 0.0947 0.0000
vn -0.0000 1.0000 -0.0000
vn 0.9839 0.1789 -0.0000
vn 1.0000 0.0000 0.0000
vn 0.0000 0.1317 0.9913
vn 0.0000 0.1317 -0.9913
vn 0.9376 0.3478 0.0000
vn 0.0000 0.0000 -1.0000
vn 0.9284 0.3716 0.0000
vn 0.0000 -1.0000 0.0000
vn 0.9958 0.0913 -0.0000
vn 0.9920 0.1266 0.0000
vn 0.9389 0.3443 0.0000
vn -1.0000 0.0000 0.0000
vn 0.0919 0.9957 -0.0125
vn 0.1042 0.9946 0.0000
vn 0.9843 0.1766 0.0000
vn 0.0895 -0.9959 -0.0100
vn 0.0994 -0.9950 0.0000
vn 0.0895 -0.9959 -0.0099
vn 0.0852 -0.9963 -0.0094
vn 0.0945 -0.9955 0.0000
vn -0.0923 -0.9957 0.0071
vn -0.0994 -0.9950 -0.0000
vn 0.9969 0.0789 -0.0000
vn -0.0000 0.0947 -0.9955
vn -0.0001 0.0947 -0.9955
vn 0.0000 0.0905 -0.9959
vn -0.0000 0.0906 -0.9959
vn 0.0000 0.0947 0.9955
vn -0.9913 0.1317 0.0000
vn 0.0005 0.0902 -0.9959
vn 0.0000 0.1266 -0.9920
vn -0.0001 0.3443 -0.9389
vn 0.0000 0.3443 -0.9389
vn 0.0000 0.1767 -0.9843
vn 0.0923 -0.9957 0.0071
vn 0.7071 0.0000 -0.7071
vn -0.0919 0.9957 -0.0125
vn 0.0000 0.0789 -0.9969
vn 0.0000 0.1789 -0.9839
vn -0.9959 0.0906 0.0000
vn -0.9959 0.0905 0.0000
vn -0.9839 0.1789 -0.0000
vn -0.9376 0.3478 0.0000
vn -0.9284 0.3716 0.0000
vn -0.9958 0.0913 0.0000
vn -0.9920 0.1266 0.0000
vn -0.9389 0.3443 -0.0000
vn -0.1042 0.9946 0.0000
vn -0.9843 0.1766 0.0000
vn -0.9969 0.0789 -0.0000
vn 0.9913 0.1317 0.0000
vn 0.0001 0.3443 -0.9389
vn -0.7071 0.0000 -0.7071
vn 0.5410 0.6439 -0.5410
vn -0.6810 0.5538 -0.4790
vn -0.5636 0.6039 -0.5636
vn -0.4799 0.5539 -0.6803
vn -0.6475 0.4019 -0.6475
vn -0.6817 0.6584 -0.3191
vn -0.5183 0.6803 -0.5182
vn -0.6729 0.3071 0.6729
vn -0.6826 0.2608 -0.6826
vn -0.0001 -0.9955 -0.0945
vn -0.0851 -0.9963 -0.0095
vn -0.0000 -0.9950 -0.0994
vn -0.7112 0.2751 -0.6469
vn -0.7269 0.3165 -0.6095
vn -0.6984 0.3045 -0.6477
vn -0.0945 -0.9955 -0.0001
vn -0.0945 -0.9955 0.0000
vn -0.8260 0.4239 -0.3714
vn -0.8228 0.3874 -0.4157
vn -0.8264 0.4637 -0.3196
vn -0.6617 0.4262 -0.6169
vn -0.6544 0.3673 -0.6610
vn -0.3934 0.5867 -0.7079
vn -0.6200 0.3781 -0.6875
vn -0.5533 0.4418 -0.7061
vn -0.3385 0.4682 -0.8162
vn -0.3388 0.4680 -0.8162
vn -0.7941 0.4179 -0.4414
vn -0.3383 0.4683 -0.8163
vn -0.4387 0.8482 -0.2967
vn -0.5293 0.6414 -0.5554
vn -0.2644 0.8764 -0.4026
vn -0.2702 0.8380 -0.4740
vn -0.4579 0.6838 -0.5682
vn -0.5713 0.6847 -0.4527
vn -0.4198 0.8671 -0.2683
vn -0.5408 0.8390 -0.0600
vn -0.0451 0.8458 -0.5316
vn 0.4417 0.4326 -0.7860
vn 0.6685 0.2279 -0.7080
vn 0.6156 0.4330 -0.6585
vn 0.6245 0.4238 -0.6561
vn 0.6721 0.2177 -0.7077
vn 0.6710 0.2100 -0.7111
vn 0.0005 0.0903 -0.9959
vn 0.3777 -0.1254 -0.9174
vn 0.5008 -0.4830 -0.7183
vn -0.7464 0.2180 -0.6288
vn -0.5559 -0.0089 -0.8312
vn -0.5409 -0.0214 -0.8408
vn -0.7650 0.1986 -0.6127
vn -0.7651 0.1988 -0.6125
vn -0.5396 -0.0515 -0.8403
vn 0.0000 -0.2626 0.9649
vn 0.2992 0.7830 0.5454
vn 0.4178 -0.9086 0.0000
vn 0.0000 -0.9248 0.3804
vn -0.3312 -0.9418 0.0573
vn -0.3313 -0.9418 0.0573
vn 0.0000 -0.9248 -0.3804
vn -0.3338 -0.9411 -0.0545
vn 0.0000 -0.2626 -0.9649
vn -0.9646 -0.2637 0.0000
vn 0.0010 -0.0001 1.0000
vn 0.0000 -0.1408 0.9900
vn 0.2389 -0.9703 0.0376
vn -0.2389 -0.9703 0.0376
vn -0.9905 -0.1376 0.0000
vn -0.2389 -0.9703 -0.0376
vn 0.2389 -0.9703 -0.0376
vn 0.0000 -0.1408 -0.9900
vn 0.9905 -0.1376 0.0000
vn 0.3685 -0.6420 0.6723
vn 0.4566 -0.4093 0.7899
vn 0.4566 -0.4093 0.7900
vn 0.5046 -0.1849 0.8433
vn 0.6742 0.1037 0.7312
vn 0.6732 0.1275 0.7284
vn 0.6742 0.1037 0.7313
vn 0.6711 -0.0518 0.7395
vn 0.8260 -0.0439 -0.5619
vn 0.8252 -0.0589 -0.5618
vn 0.8193 0.1608 -0.5504
vn 0.4262 -0.0320 0.9041
vn 0.0011 -0.0001 1.0000
vn 0.0004 0.0003 1.0000
vn 0.7647 -0.4783 -0.4318
vn 0.9646 -0.2637 0.0000
vn 0.2955 0.2945 0.9088
vn 0.1765 0.1179 0.9772
vn 0.3528 0.3828 0.8538
vn 0.3546 0.2599 0.8982
vn 0.3908 0.3971 0.8304
vn 0.1766 0.1179 0.9772
vn 0.4560 0.4381 0.7746
vn -0.4178 -0.9086 0.0000
vn 0.3313 -0.9418 0.0573
vn 0.3312 -0.9418 0.0573
vn 0.3312 -0.9418 -0.0573
vn 0.3313 -0.9418 -0.0573
vn -0.5566 -0.0489 -0.8294
vn -0.5595 -0.0678 -0.8261
vn -0.5209 0.1227 -0.8448
vn -0.5856 0.0479 0.8092
vn -0.6371 -0.2475 0.7300
vn -0.5815 0.0628 0.8111
vn -0.9638 0.1208 0.2378
vn -0.8103 0.4809 0.3348
vn -0.7923 0.2915 0.5361
vn -0.7212 -0.6894 0.0677
vn -0.6863 -0.7173 0.1203
vn -0.7645 -0.6411 -0.0677
vn -0.6271 0.1831 0.7571
vn -0.7343 0.5742 0.3622
vn -0.7378 0.5805 0.3444
vn -0.6989 0.5926 0.4004
vn -0.8249 0.5071 0.2497
vn -0.6799 -0.3996 0.6148
vn -0.5393 -0.6666 0.5146
vn -0.9047 0.0927 0.4157
vn -0.7817 -0.6223 -0.0402
vn -0.6131 0.1451 0.7766
vn -0.6094 0.1451 0.7795
vn -0.9763 -0.1537 0.1526
vn -0.6077 -0.7359 0.2986
vn -0.7312 -0.2219 0.6451
vn -0.3231 0.6574 -0.6808
vn -0.0000 -0.9951 -0.0994
vn -0.0994 -0.9951 0.0000
usemtl sandstone
s 1
f 84/1/1 37/2/2 105/3/1
f 201/4/3 31/5/3 36/6/3 206/7/3
f 94/8/4 97/9/4 47/10/4 6/11/4
f 4/12/5 49/13/5 48/14/5 3/15/5
f 6/11/4 47/10/4 53/16/4 5/17/4
f 8/18/4 51/19/4 50/20/4 7/21/4
f 46/22/6 48/23/6 51/24/6 53/25/6
f 2/26/5 3/15/5 48/14/5 46/27/5
f 4/12/5 55/28/5 56/29/5 49/13/5
f 2/26/5 46/27/5 52/30/5 1/31/5
f 97/32/6 98/33/6 52/34/6 47/35/6
f 9/36/7 107/37/7 108/38/7 58/39/7
f 13/40/6 12/41/6 15/42/6 16/43/6
f 11/44/6 10/45/6 14/46/6 17/47/6
f 116/48/8 114/49/8 18/50/8 21/51/8
f 53/16/4 51/19/4 8/18/4 5/17/4
f 51/19/4 17/52/4 14/53/4 50/20/4
f 53/54/9 13/55/9 16/56/9 46/57/9
f 50/58/9 14/59/9 10/60/9 49/61/9
f 49/13/5 10/62/5 11/63/5 48/14/5
f 52/64/10 15/65/10 12/66/10 47/67/10
f 48/68/10 11/69/10 17/70/10 51/71/10
f 46/27/5 16/72/5 15/73/5 52/30/5
f 47/10/4 12/74/4 13/75/4 53/16/4
f 98/76/5 93/77/5 1/31/5 52/30/5
f 50/20/4 57/78/4 54/79/4 7/21/4
f 49/80/6 56/81/6 57/82/6 50/83/6
f 70/84/8 69/85/8 73/86/11 74/87/11
f 68/88/8 72/89/11 71/90/11 67/91/8
f 65/92/12 73/93/12 69/94/12 61/95/12
f 66/96/13 74/87/11 73/86/11 65/97/13
f 61/98/14 69/99/14 70/100/14 62/101/14
f 63/102/12 72/103/12 68/104/12 59/105/12
f 62/106/3 70/107/3 74/108/3 66/109/3
f 64/110/13 71/90/11 72/89/11 63/111/13
f 59/112/14 68/113/14 67/114/14 60/115/14
f 60/116/3 67/117/3 71/118/3 64/119/3
f 85/120/1 86/121/1 37/2/2
f 22/122/2 75/123/2 87/124/15 88/125/2
f 90/126/16 89/127/16 79/128/17 80/129/17
f 44/130/8 23/131/8 170/132/8
f 140/133/14 45/134/14 44/135/14 120/136/14
f 137/137/18 41/138/18 40/139/18 136/140/18
f 75/123/2 37/2/2 87/124/15
f 132/141/19 133/142/19 31/143/20 32/144/20
f 133/145/21 130/146/21 36/147/21 31/148/21
f 115/149/22 19/150/23 18/151/23 114/152/24
f 116/153/25 21/154/26 24/155/26 122/156/25
f 125/157/27 27/158/28 28/159/28 124/160/27
f 87/161/12 79/162/12 89/163/12 88/164/12
f 86/121/1 87/124/15 37/2/2
f 84/1/1 85/120/1 37/2/2
f 78/165/16 91/166/16 76/167/17 77/168/17
f 82/169/3 78/170/3 77/171/3 84/172/3
f 84/1/1 77/168/17 76/167/17 85/120/1
f 85/173/12 76/174/12 91/175/12 81/176/12
f 83/177/3 90/178/3 80/179/3 86/180/3
f 86/121/1 80/129/17 79/128/17 87/124/15
f 81/181/2 83/182/2 86/121/1 85/120/1
f 132/183/29 32/184/29 33/185/29 131/186/29
f 56/187/3 55/188/3 54/189/3 57/190/3
f 204/191/3 260/192/3 203/193/3
f 169/194/14 23/195/14 193/196/14
f 111/197/5 93/77/5 98/76/5 113/198/5
f 371/199/30 370/200/31 112/201/30
f 98/202/9 97/203/9 95/204/9 96/205/9
f 113/198/5 98/76/5 96/206/5 109/207/5
f 336/208/32 156/209/33 153/210/32
f 378/211/2 373/212/2 106/213/1
f 105/3/1 37/2/2 106/213/1
f 101/214/16 100/215/17 99/216/17 102/217/16
f 104/218/12 105/219/12 100/220/12 101/221/12
f 105/3/1 106/213/1 99/216/17 100/215/17
f 106/222/3 103/223/3 102/224/3 99/225/3
f 115/226/8 118/227/8 20/228/8 19/229/8
f 25/230/8 30/231/8 128/232/8 127/233/8
f 215/234/18 213/235/18 303/236/18 304/237/18
f 43/238/6 139/239/6 138/240/6 42/241/6
f 35/242/6 134/243/6 131/244/6 33/245/6
f 137/246/6 301/247/6 211/248/6 41/249/6
f 126/250/6 290/251/6 300/252/6 136/253/6
f 42/254/8 138/255/8 129/256/8 38/257/8
f 38/258/6 129/259/6 128/260/6 30/261/6
f 27/262/18 125/263/18 126/264/18 39/265/18
f 25/266/14 127/267/14 123/268/14 26/269/14
f 26/270/8 123/271/8 122/272/8 24/273/8
f 29/274/18 117/275/18 124/276/18 28/277/18
f 94/8/4 110/278/4 112/279/4 97/9/4
f 145/280/6 146/281/6 109/282/6 371/283/6
f 108/284/6 276/285/6 228/286/6 58/287/6
f 111/288/34 113/289/34 148/290/34 143/291/34
f 95/292/6 372/293/6 109/282/6 96/294/6
f 148/295/35 146/296/35 145/297/35 147/298/35
f 113/289/34 109/299/34 146/300/34 148/290/34
f 376/301/36 374/302/32 321/303/32
f 155/304/33 156/209/33 321/303/32
f 151/305/37 152/306/37 149/307/38 150/308/39
f 154/309/8 151/310/8 150/311/8 155/312/8
f 155/304/33 150/308/39 149/307/38 156/209/33
f 156/313/18 149/314/18 152/315/18 153/316/18
f 292/317/12 291/318/12 127/319/12 128/320/12
f 138/321/12 302/322/12 293/323/12 129/324/12
f 299/325/14 135/326/14 142/327/14 306/328/14
f 297/329/40 294/330/40 130/331/40 133/332/40
f 134/243/6 298/333/6 295/334/6 131/244/6
f 129/259/6 293/335/6 292/336/6 128/260/6
f 301/337/3 137/338/3 136/339/3 300/340/3
f 127/267/14 291/341/14 287/342/14 123/268/14
f 289/343/41 125/157/27 124/160/27 288/344/41
f 319/345/33 155/304/33 321/303/32
f 123/346/12 287/347/12 286/348/12 122/349/12
f 282/350/6 117/351/6 350/352/6
f 144/353/30 147/354/30 112/201/30 110/355/30
f 372/293/6 371/283/6 109/282/6
f 31/5/3 201/4/3 260/192/3 92/356/3
f 157/357/3 159/358/3 160/359/3 158/360/3
f 165/361/12 161/362/12 163/363/12 168/364/12
f 161/365/18 162/366/18 164/367/18 163/368/18
f 165/369/42 168/370/42 167/371/42 166/372/42
f 167/371/8 159/373/8 157/374/8 166/372/8
f 135/375/12 299/376/12 298/377/12 134/378/12
f 139/379/12 140/380/12 304/381/12 303/382/12
f 139/239/6 303/383/6 302/384/6 138/240/6
f 209/385/6 210/386/6 300/252/6 290/251/6
f 296/387/43 297/388/43 133/142/19 132/141/19
f 296/389/44 132/390/44 131/391/44 295/392/44
f 125/393/3 289/394/3 290/395/3 126/396/3
f 304/397/14 140/133/14 120/136/14 284/398/14
f 283/399/12 284/400/12 120/401/12 119/402/12
f 318/403/32 154/404/32 155/304/33 319/345/33
f 117/405/3 282/406/3 288/407/3 124/408/3
f 312/409/34 307/410/34 143/291/34 148/290/34
f 311/411/6 312/412/6 148/413/6 147/414/6
f 308/415/30 311/416/30 147/354/30 144/353/30
f 107/417/45 275/418/45 276/419/45 108/420/45
f 283/421/14 119/422/14 169/194/14
f 245/423/3 207/424/3 37/425/3 75/426/3
f 135/326/14 34/427/14 92/428/14 142/327/14
f 192/429/3 245/423/3 75/426/3 22/430/3
f 306/328/14 142/327/14 92/428/14 260/431/14
f 20/432/6 118/433/6 117/351/6 29/434/6
f 294/435/6 206/436/6 36/437/6 130/438/6
f 119/422/14 170/439/14 169/194/14
f 82/440/2 84/1/1 105/3/1 104/441/2
f 34/442/8 135/443/8 134/444/8 35/445/8
f 252/446/46 273/447/46 207/448/47
f 262/449/5 176/450/5 217/451/5 265/452/5
f 174/453/4 173/454/4 218/455/4 219/456/4
f 176/450/5 175/457/5 223/458/5 217/451/5
f 178/459/5 177/460/5 220/461/5 221/462/5
f 216/463/6 223/464/6 221/465/6 218/466/6
f 172/467/4 216/468/4 218/455/4 173/454/4
f 174/453/4 219/456/4 226/469/4 225/470/4
f 172/467/4 171/471/4 222/472/4 216/468/4
f 265/473/6 217/474/6 222/475/6 266/476/6
f 276/477/48 275/478/48 179/479/48 228/480/48
f 182/481/6 183/482/6 186/483/6 185/484/6
f 180/485/6 181/486/6 187/487/6 184/488/6
f 223/458/5 175/457/5 178/459/5 221/462/5
f 221/462/5 220/461/5 184/489/5 187/490/5
f 223/491/9 216/492/9 186/493/9 183/494/9
f 220/495/9 219/496/9 180/497/9 184/498/9
f 219/456/4 218/455/4 181/499/4 180/500/4
f 222/501/10 217/502/10 182/503/10 185/504/10
f 218/505/10 221/506/10 187/507/10 181/508/10
f 216/468/4 222/472/4 185/509/4 186/510/4
f 217/451/5 223/458/5 183/511/5 182/512/5
f 266/513/4 222/472/4 171/471/4 261/514/4
f 220/461/5 177/460/5 224/515/5 227/516/5
f 219/517/6 220/518/6 227/519/6 226/520/6
f 58/521/3 228/522/3 179/523/3 9/524/3
f 240/525/18 244/526/49 243/527/49 239/528/18
f 238/529/18 237/530/18 241/531/49 242/532/49
f 235/533/12 231/534/12 239/535/12 243/536/12
f 236/537/50 235/538/50 243/527/49 244/526/49
f 231/539/14 232/540/14 240/541/14 239/542/14
f 233/543/12 229/544/12 238/545/12 242/546/12
f 232/547/3 236/548/3 244/549/3 240/550/3
f 234/551/50 233/552/50 242/532/49 241/531/49
f 229/553/14 230/554/14 237/555/14 238/556/14
f 230/557/3 234/558/3 241/559/3 237/560/3
f 253/561/46 207/448/47 254/562/46
f 192/563/47 256/564/47 255/565/51 245/566/47
f 258/567/52 250/568/53 249/569/53 257/570/52
f 334/571/18 214/572/18 284/573/18
f 304/397/14 284/398/14 214/574/14 215/575/14
f 301/576/8 300/577/8 210/578/8 211/579/8
f 245/566/47 255/565/51 207/448/47
f 296/387/43 202/580/54 201/581/54 297/388/43
f 297/582/55 201/583/55 206/584/55 294/585/55
f 289/343/41 288/344/41 198/586/23 197/587/23
f 255/588/12 256/589/12 257/590/12 249/591/12
f 254/562/46 207/448/47 255/565/51
f 252/446/46 207/448/47 253/561/46
f 248/592/52 247/593/53 246/594/53 259/595/52
f 252/446/46 253/561/46 246/594/53 247/593/53
f 251/596/3 254/597/3 250/598/3 258/599/3
f 254/562/46 255/565/51 249/569/53 250/568/53
f 346/600/12 259/601/12 246/602/12
f 296/603/56 295/604/56 203/605/56 202/606/56
f 226/607/3 227/608/3 224/609/3 225/610/3
f 44/611/3 39/612/3 41/613/3
f 279/614/4 281/615/4 266/513/4 261/514/4
f 309/616/6 351/617/6 277/618/6 310/619/6
f 266/620/9 264/621/9 263/622/9 265/623/9
f 281/615/4 277/624/4 264/625/4 266/513/4
f 207/448/47 274/626/47 384/627/47
f 273/447/46 274/626/47 207/448/47
f 269/628/52 270/629/52 267/630/53 268/631/53
f 272/632/12 269/633/12 268/634/12 273/635/12
f 273/447/46 268/631/53 267/630/53 274/626/47
f 274/636/3 267/637/3 270/638/3 271/639/3
f 292/640/18 200/641/18 195/642/18 291/643/18
f 45/644/8 140/645/8 139/646/8 43/647/8
f 213/648/6 212/649/6 302/384/6 303/383/6
f 39/650/6 126/250/6 136/253/6 40/651/6
f 205/652/6 203/653/6 295/334/6 298/333/6
f 212/654/18 208/655/18 293/656/18 302/657/18
f 208/658/6 200/659/6 292/336/6 293/335/6
f 197/660/8 209/661/8 290/662/8 289/663/8
f 195/664/14 196/665/14 287/342/14 291/341/14
f 196/666/18 194/667/18 286/668/18 287/669/18
f 199/670/8 198/671/8 288/672/8 282/673/8
f 262/449/5 265/452/5 280/674/5 278/675/5
f 352/676/6 368/677/6 277/618/6
f 367/678/5 365/679/5 280/674/5
f 279/680/34 307/410/34 312/409/34 281/681/34
f 351/617/6 366/682/6 277/618/6
f 312/683/57 311/684/57 309/685/57 310/686/57
f 281/681/34 312/409/34 310/687/34 277/688/34
f 383/689/32 380/690/32 320/691/33
f 319/345/33 321/303/32 320/691/33
f 315/692/37 314/693/58 313/694/39 316/695/37
f 318/696/18 319/697/18 314/698/18 315/699/18
f 319/345/33 320/691/33 313/694/39 314/693/58
f 320/700/8 317/701/8 316/702/8 313/703/8
f 263/704/6 264/705/6 277/618/6 368/677/6
f 308/415/30 278/706/30 280/707/30 311/416/30
f 280/707/30 365/708/30 364/709/30
f 322/710/3 323/711/3 325/712/3 324/713/3
f 330/714/12 333/715/12 328/716/12 326/717/12
f 326/718/8 328/719/8 329/720/8 327/721/8
f 330/722/59 331/723/59 332/724/59 333/725/59
f 332/724/18 331/723/18 322/726/18 324/727/18
f 299/325/14 306/328/14 260/431/14 204/728/14
f 354/729/6 282/350/6 353/730/6
f 283/421/14 169/194/14 334/731/14
f 343/732/3 247/733/3 248/734/3
f 204/735/18 205/736/18 298/737/18 299/738/18
f 34/739/3 35/740/3 33/741/3
f 335/742/60 336/743/60 337/744/60
f 106/213/1 336/745/2 103/746/2
f 608/747/61 607/748/62 606/749/63 339/750/64
f 338/751/32 317/752/32 339/750/32
f 274/626/47 271/753/47 339/754/47
f 607/755/62 608/756/61 340/757/65 341/758/66
f 342/759/67 343/760/67 344/761/67
f 342/759/47 272/762/47 273/447/46
f 345/763/68 346/600/68 347/764/68
f 346/765/47 254/562/46 251/766/47
f 358/767/18 357/768/18 191/769/18 188/770/18
f 360/771/69 116/153/25 122/156/25 286/772/70
f 360/773/12 359/774/12 114/775/12 116/776/12
f 362/777/71 115/149/22 114/152/24
f 188/778/28 349/779/28 358/780/28
f 356/781/72 355/782/73 359/774/74
f 354/783/18 349/784/18 189/785/18 190/786/18
f 362/787/12 350/788/12 118/789/12 115/790/12
f 357/791/75 286/772/70 194/792/76 191/793/76
f 357/791/75 360/771/69 286/772/70
f 349/784/77 354/783/78 353/794/77
f 349/784/77 353/794/77 348/795/79
f 353/794/80 356/796/72 358/767/81
f 358/797/81 348/798/82 353/799/80
f 360/773/83 357/800/84 358/797/81
f 362/787/85 361/801/86 355/782/85
f 361/802/87 359/803/74 355/804/73
f 359/774/74 360/773/83 358/797/81
f 355/782/85 350/788/88 362/787/85
f 358/797/81 356/781/72 359/774/74
f 364/805/89 365/806/90 367/807/91
f 369/808/92 352/676/93 366/682/94 363/809/95
f 366/682/94 351/617/96 363/809/95
f 351/617/96 364/805/89 363/809/95
f 364/805/89 367/807/91 363/809/95
f 367/807/91 368/677/97 369/808/92
f 363/809/95 367/807/91 369/808/92
f 368/677/97 352/676/93 369/808/92
f 372/810/98 370/200/98 371/199/98
f 112/279/4 370/811/4 372/812/4
f 375/813/99 376/301/100 378/814/101
f 378/211/101 379/815/102 375/816/99
f 379/817/102 374/302/103 375/813/99
f 376/301/36 373/818/104 377/819/105
f 377/819/105 378/814/106 376/301/36
f 382/820/107 384/821/108 383/689/109
f 382/822/107 381/823/110 385/824/111
f 385/824/111 384/627/108 382/822/107
f 384/821/108 380/690/112 383/689/109
f 387/825/113 495/826/113 490/827/113
f 449/828/8 392/829/8 405/830/8 459/831/8
f 476/832/114 475/833/114 471/834/114 474/835/114
f 397/836/115 401/837/115 402/838/115 396/839/115
f 388/840/14 409/841/14 455/842/14 452/843/14
f 392/844/12 393/845/12 417/846/12 416/847/12
f 412/848/116 415/849/117 414/850/118 398/851/116
f 408/852/6 486/853/6 411/854/6 407/855/6
f 412/856/8 396/857/8 395/858/8 413/859/8
f 393/860/6 389/861/6 413/862/6 395/863/6
f 398/851/115 397/836/115 396/839/115 412/848/115
f 419/864/14 405/865/14 392/866/14 416/867/14
f 484/868/2 481/869/2 443/870/2
f 395/863/6 403/871/6 404/872/6 393/860/6
f 425/873/3 406/874/3 423/875/3 422/876/3
f 396/857/8 402/877/8 403/878/8 395/858/8
f 404/879/8 478/880/8 479/881/8
f 487/882/119 400/883/119 399/884/120 394/885/120
f 390/886/18 453/887/18 456/888/18 407/889/18
f 400/890/2 401/891/2 447/892/2 445/893/2
f 477/894/12 480/895/12 407/896/12
f 486/897/12 487/898/12 394/899/12 411/900/12
f 404/872/6 403/871/6 485/901/6 408/852/6
f 428/902/121 427/903/121 410/904/121 409/905/121
f 389/861/6 390/906/6 386/907/6 413/862/6
f 413/908/3 386/909/3 415/910/3 412/911/3
f 450/912/14 458/913/14 410/914/14 387/915/14
f 405/916/3 419/917/3 418/918/3 404/919/3
f 488/920/8 485/921/8 403/878/8 402/877/8
f 426/922/122 428/923/122 409/924/122 388/925/122
f 391/926/8 406/927/8 419/928/8 416/929/8
f 424/930/8 391/926/8 416/929/8 417/931/8
f 406/927/8 425/932/8 418/933/8 419/928/8
f 424/934/6 425/935/6 422/936/6 421/937/6
f 406/938/14 391/939/14 420/940/14 423/941/14
f 422/942/8 423/943/8 420/944/8 421/945/8
f 417/946/6 393/860/6 424/934/6
f 404/872/6 418/947/6 425/935/6
f 404/872/6 425/935/6 424/934/6 393/860/6
f 427/948/14 428/949/14 463/950/14 462/951/14
f 428/949/14 426/952/14 461/953/14 463/950/14
f 432/954/8 429/955/8 433/956/8 436/957/8
f 494/958/6 466/959/6 431/960/6
f 431/960/6 466/959/6 464/961/6 432/962/6
f 432/962/6 464/961/6 465/963/6 429/964/6
f 544/965/6 581/966/6 580/967/6 543/968/6
f 433/969/6 434/970/6 435/971/6 436/972/6
f 430/973/18 431/974/18 435/975/18 434/976/18
f 431/977/3 432/978/3 436/979/3 435/980/3
f 429/981/12 430/982/12 434/983/12 433/984/12
f 391/985/12 424/986/12 421/987/12 420/988/12
f 452/843/14 450/912/14 387/915/14 388/840/14
f 455/842/14 409/841/14 410/914/14 458/913/14
f 411/854/6 386/907/6 390/906/6 407/855/6
f 394/989/18 415/990/18 386/991/18 411/992/18
f 399/884/120 414/850/118 415/849/117 394/885/120
f 440/993/18 442/994/18 444/995/18 448/996/18
f 438/997/2 437/998/2 447/892/2 443/870/2
f 442/999/3 439/1000/3 446/1001/3 444/1002/3
f 441/1003/12 440/1004/12 448/1005/12 445/1006/12
f 445/1006/12 448/1005/12 399/1007/12 400/1008/12
f 448/996/18 444/995/18 414/1009/18 399/1010/18
f 443/870/2 446/1011/2 439/1012/2 438/997/2
f 445/893/2 447/892/2 437/998/2 441/1013/2
f 443/870/2 447/892/2 401/891/2 397/1014/2
f 482/1015/123 398/1016/3 414/1017/3
f 450/1018/124 452/1019/124 454/1020/124 451/1021/124
f 451/1022/125 454/1023/126 453/1024/126 449/1025/125
f 452/1026/127 455/1027/127 457/1028/127 454/1029/127
f 454/1023/126 457/1030/128 456/1031/128 453/1024/126
f 459/1032/129 456/1031/128 457/1030/128 460/1033/129
f 460/1034/130 457/1035/130 455/1036/130 458/1037/130
f 458/1038/131 450/1039/131 451/1040/131 460/1041/131
f 460/1033/129 451/1022/125 449/1025/125 459/1032/129
f 462/1042/12 463/1043/12 464/1044/12 466/1045/12
f 463/1046/18 461/1047/18 465/1048/18 464/1049/18
f 461/1050/3 496/1051/3 493/1052/3 465/1053/3
f 426/952/14 490/1054/14 496/1055/14 461/953/14
f 471/1056/8 469/1057/8 393/1058/8
f 471/1059/132 472/1060/133 473/1061/134 474/1062/132
f 474/1062/3 470/1063/3 453/1064/3
f 473/1061/134 472/1060/133 470/1063/135
f 468/1065/136 467/1066/137 469/1067/138
f 468/1065/136 469/1067/138 475/1068/139 476/1069/139
f 480/1070/140 477/1071/141 479/881/140
f 478/880/142 480/1070/140 479/881/140
f 484/1072/143 482/1015/123 483/1073/144
f 481/1074/145 484/1072/143 483/1073/144
f 485/901/6 486/853/6 408/852/6
f 400/883/115 488/1075/115 402/838/115 401/837/115
f 485/921/146 488/920/146 400/890/146
f 494/1076/8 489/1077/8 462/1078/8 466/1079/8
f 489/1080/14 491/1081/14 427/948/14 462/951/14
f 410/1082/147 491/1083/147 387/1084/147
f 491/1085/148 494/1086/149 492/1087/150
f 495/826/151 491/1085/148 490/827/152
f 491/1085/148 492/1087/150 490/827/152
f 491/1085/148 489/1088/153 494/1086/149
f 490/827/152 492/1087/150 493/1052/154 496/1051/154
f 513/1089/155 514/1090/155 515/1091/155 512/1092/155
f 539/1093/113 540/1094/113 498/1095/113 499/1096/113
f 563/1097/18 573/1098/18 518/1099/18 503/1100/18
f 590/1101/18 588/1102/18 503/1100/18
f 508/1103/155 507/1104/155 515/1091/155 514/1090/155
f 499/1105/14 566/1106/14 569/1107/14 522/1108/14
f 503/1109/12 529/1110/12 530/1111/12 504/1112/12
f 525/1113/116 509/1114/116 527/1115/156 528/1116/157
f 512/1117/18 515/1118/18 516/1119/18 511/1120/18
f 525/1121/18 526/1122/18 506/1123/18 507/1124/18
f 504/1125/6 506/1126/6 526/1127/6 500/1128/6
f 509/1114/155 525/1113/155 507/1104/155 508/1103/155
f 532/1129/14 529/1130/14 503/1131/14 518/1132/14
f 508/1133/47 557/1134/47 600/1135/47
f 557/1134/47 560/1136/47 591/1137/47
f 594/1138/47 596/1139/47 592/1140/47
f 592/1140/47 509/1141/47 508/1133/47
f 506/1126/6 504/1125/6 517/1142/6 516/1143/6
f 538/1144/3 535/1145/3 536/1146/3 519/1147/3
f 507/1124/18 506/1123/18 516/1119/18 515/1118/18
f 517/1148/18 518/1099/18 585/1149/18
f 511/1150/12 524/1151/12 505/1152/12 512/1153/12
f 540/1154/122 541/1155/122 523/1156/122 498/1157/122
f 501/1158/8 520/1159/8 570/1160/8 567/1161/8
f 559/1162/47 561/1163/47 514/1164/47 513/1165/47
f 586/1166/12 583/1167/12 570/1168/12
f 493/1169/6 492/1170/6 430/1171/6
f 521/1172/6 520/1173/6 524/1174/6 511/1175/6
f 512/1092/119 505/1176/158 510/1177/159 513/1089/119
f 542/1178/121 522/1179/121 523/1180/121 541/1181/121
f 500/1128/6 526/1127/6 497/1182/6 501/1183/6
f 526/1184/3 525/1185/3 528/1186/3 497/1187/3
f 564/1188/14 498/1189/14 523/1190/14 572/1191/14
f 518/1192/3 517/1193/3 531/1194/3 532/1195/3
f 517/1142/6 521/1172/6 511/1175/6 516/1143/6
f 539/1196/147 499/1197/147 522/1198/147 542/1199/147
f 502/1200/18 529/1201/18 532/1202/18 519/1203/18
f 537/1204/18 530/1205/18 529/1201/18 502/1200/18
f 519/1203/18 532/1202/18 531/1206/18 538/1207/18
f 537/1208/6 534/1209/6 535/1210/6 538/1211/6
f 519/1212/14 536/1213/14 533/1214/14 502/1215/14
f 535/1216/18 534/1217/18 533/1218/18 536/1219/18
f 530/1220/6 537/1208/6 504/1125/6
f 517/1142/6 538/1211/6 531/1221/6
f 517/1142/6 504/1125/6 537/1208/6 538/1211/6
f 541/1222/14 577/1223/14 578/1224/14 542/1225/14
f 542/1225/14 578/1224/14 575/1226/14 539/1227/14
f 546/1228/18 550/1229/18 547/1230/18 543/1231/18
f 545/1232/6 582/1233/6 581/966/6 544/965/6
f 546/1234/6 579/1235/6 582/1233/6 545/1232/6
f 543/968/6 580/967/6 579/1235/6 546/1234/6
f 547/1236/6 550/1237/6 549/1238/6 548/1239/6
f 544/1240/8 548/1241/8 549/1242/8 545/1243/8
f 545/1244/3 549/1245/3 550/1246/3 546/1247/3
f 543/1248/12 547/1249/12 548/1250/12 544/1251/12
f 502/1252/12 533/1253/12 534/1254/12 537/1255/12
f 566/1106/14 499/1105/14 498/1189/14 564/1188/14
f 569/1107/14 572/1191/14 523/1190/14 522/1108/14
f 524/1174/6 520/1173/6 501/1183/6 497/1182/6
f 505/1256/8 524/1257/8 497/1258/8 528/1259/8
f 510/1177/159 505/1176/158 528/1116/157 527/1115/156
f 554/1260/8 562/1261/8 558/1262/8 556/1263/8
f 552/1264/47 557/1134/47 561/1163/47 551/1265/47
f 556/1266/3 558/1267/3 560/1268/3 553/1269/3
f 555/1270/12 559/1271/12 562/1272/12 554/1273/12
f 559/1271/12 513/1274/12 510/1275/12 562/1272/12
f 562/1261/8 510/1276/8 527/1277/8 558/1262/8
f 557/1134/47 552/1264/47 553/1278/47 560/1136/47
f 559/1162/47 555/1279/47 551/1265/47 561/1163/47
f 557/1134/47 508/1133/47 514/1164/47 561/1163/47
f 527/1280/3 598/1281/3 599/1282/3
f 564/1283/124 565/1284/124 568/1285/124 566/1286/124
f 565/1287/126 563/1288/126 567/1289/125 568/1290/125
f 566/1291/131 568/1292/131 571/1293/131 569/1294/131
f 568/1290/125 567/1289/125 570/1295/129 571/1296/129
f 573/1297/128 574/1298/128 571/1296/129 570/1295/129
f 574/1299/130 572/1300/130 569/1301/130 571/1302/130
f 572/1303/127 574/1304/127 565/1305/127 564/1306/127
f 574/1298/128 573/1297/128 563/1288/126 565/1287/126
f 501/1307/3 567/1308/3 587/1309/3
f 540/1310/14 576/1311/14 577/1223/14 541/1222/14
f 577/1312/12 582/1313/12 579/1314/12 578/1315/12
f 578/1316/8 579/1317/8 580/1318/8 575/1319/8
f 576/1320/18 581/1321/18 582/1322/18 577/1323/18
f 575/1324/3 580/1325/3 581/1326/3 576/1327/3
f 539/1227/14 575/1226/14 576/1311/14 540/1310/14
f 585/1328/160 583/1167/161 586/1166/160
f 584/1329/162 585/1328/160 586/1166/160
f 589/1330/163 588/1331/164 590/1332/163
f 587/1309/165 589/1330/163 590/1332/163
f 600/1135/47 594/1138/47 508/1133/47
f 602/1333/166 605/1334/167 603/1335/168
f 594/1138/169 601/1336/170 602/1333/171
f 595/1337/172 605/1334/167 593/1338/173
f 593/1338/173 604/1339/174 600/1135/175
f 593/1338/173 605/1334/167 604/1339/174
f 600/1135/175 604/1339/174 601/1336/176
f 604/1339/174 602/1333/166 601/1336/176
f 597/1340/177 596/1341/177 602/1342/178
f 598/1343/179 602/1333/166 603/1335/168
f 594/1138/169 602/1333/171 596/1139/180
f 603/1344/168 595/1345/172 599/1282/181
f 595/1345/172 591/1346/182 599/1282/181
f 599/1347/181 598/1343/179 603/1335/168
f 598/1343/179 597/1348/183 602/1333/166
f 601/1349/170 594/1350/169 600/1351/184
f 595/1337/172 603/1335/168 605/1334/167
f 604/1339/174 605/1334/167 602/1333/166
f 597/1348/177 592/1140/185 596/1139/177
f 366/682/6 352/676/6 277/618/6
f 338/751/186 606/749/63 607/748/62 341/1352/66
f 591/1137/47 595/1337/47 593/1338/47
f 594/1138/47 592/1140/47 508/1133/47
f 591/1137/47 593/1338/47 600/1135/47
f 557/1134/47 591/1137/47 600/1135/47
f 170/132/8 119/1353/8 120/1354/8
f 120/1354/8 44/130/8 170/132/8
f 201/4/3 202/1355/3 260/192/3
f 202/1355/3 203/193/3 260/192/3
f 203/193/3 205/1356/3 204/191/3
f 193/196/14 334/731/14 169/194/14
f 169/194/14 170/439/14 23/195/14
f 112/201/30 147/354/30 371/199/30
f 147/354/30 145/1357/30 371/199/30
f 153/210/32 337/1358/32 336/208/32
f 336/208/32 121/1359/32 156/209/33
f 373/212/2 121/1360/2 106/213/1
f 106/213/1 37/2/2 378/211/2
f 37/2/2 141/1361/2 374/1362/2
f 378/211/2 37/2/2 374/1362/2
f 374/1362/2 379/815/2 378/211/2
f 378/211/2 377/1363/2 373/212/2
f 156/209/33 121/1359/32 373/818/104
f 376/301/36 375/813/32 374/302/32
f 156/209/33 373/818/104 376/301/36
f 141/1364/32 321/303/32 374/302/32
f 321/303/32 156/209/33 376/301/36
f 117/351/6 118/433/6 350/352/6
f 350/352/6 355/1365/6 356/1366/6
f 356/1366/6 282/350/6 350/352/6
f 284/573/18 283/1367/18 334/571/18
f 334/571/18 193/1368/18 214/572/18
f 246/602/12 253/1369/12 346/600/12
f 346/600/12 345/763/12 259/601/12
f 194/1370/3 196/1371/3 195/1372/3
f 200/1373/3 208/1374/3 212/1375/3
f 212/1375/3 213/1376/3 215/1377/3
f 214/1378/3 193/1379/3 211/1380/3
f 193/1379/3 23/1381/3 41/613/3
f 212/1375/3 215/1377/3 214/1378/3
f 200/1373/3 212/1375/3 209/1382/3
f 212/1375/3 214/1378/3 209/1382/3
f 193/1379/3 41/613/3 211/1380/3
f 23/1381/3 44/611/3 41/613/3
f 44/611/3 45/1383/3 43/1384/3
f 42/1385/3 38/1386/3 30/1387/3
f 44/611/3 43/1384/3 42/1385/3
f 188/1388/3 191/1389/3 194/1370/3
f 190/1390/3 189/1391/3 188/1388/3
f 198/1392/3 199/1393/3 197/1394/3
f 199/1393/3 190/1390/3 197/1394/3
f 190/1390/3 188/1388/3 197/1394/3
f 188/1388/3 194/1370/3 197/1394/3
f 211/1380/3 210/1395/3 209/1382/3
f 197/1394/3 194/1370/3 195/1372/3
f 197/1394/3 195/1372/3 209/1382/3
f 195/1372/3 200/1373/3 209/1382/3
f 44/611/3 42/1385/3 39/612/3
f 42/1385/3 30/1387/3 39/612/3
f 25/1396/3 26/1397/3 24/1398/3
f 24/1398/3 21/1399/3 18/1400/3
f 18/1400/3 19/1401/3 20/1402/3
f 20/1402/3 29/1403/3 27/1404/3
f 29/1403/3 28/1405/3 27/1404/3
f 24/1398/3 18/1400/3 27/1404/3
f 18/1400/3 20/1402/3 27/1404/3
f 39/612/3 40/1406/3 41/613/3
f 25/1396/3 24/1398/3 27/1404/3
f 30/1387/3 25/1396/3 39/612/3
f 25/1396/3 27/1404/3 39/612/3
f 211/1380/3 209/1382/3 214/1378/3
f 274/626/47 285/1407/47 380/1408/47
f 384/627/47 385/824/47 207/448/47
f 385/824/47 381/823/47 207/448/47
f 274/626/47 380/1408/47 384/627/47
f 305/1409/47 207/448/47 381/823/47
f 280/674/5 265/452/5 368/1410/5
f 265/452/5 263/1411/5 368/1410/5
f 368/1410/5 367/678/5 280/674/5
f 380/690/32 285/1412/32 320/691/33
f 320/691/33 321/303/32 383/689/32
f 321/303/32 305/1413/32 381/1414/32
f 383/689/32 321/303/32 381/1414/32
f 381/1414/32 382/820/32 383/689/32
f 309/1415/30 311/416/30 351/1416/30
f 311/416/30 280/707/30 351/1416/30
f 351/1416/30 280/707/30 364/709/30
f 354/729/6 190/1417/6 282/350/6
f 190/1417/6 199/1418/6 282/350/6
f 282/350/6 356/1366/6 353/730/6
f 248/734/3 344/1419/3 343/732/3
f 343/732/3 252/1420/3 247/733/3
f 33/741/3 32/1421/3 92/356/3
f 32/1421/3 31/5/3 92/356/3
f 92/356/3 34/739/3 33/741/3
f 121/1360/2 336/745/2 106/213/1
f 336/745/2 335/1422/2 103/746/2
f 285/1412/32 339/750/32 320/691/33
f 339/750/32 606/749/32 338/751/32
f 320/691/33 339/750/32 317/752/32
f 271/753/47 340/757/47 339/754/47
f 340/757/47 608/756/47 339/754/47
f 339/754/47 285/1407/47 274/626/47
f 252/446/46 343/760/47 273/447/46
f 343/760/47 342/759/47 273/447/46
f 251/766/47 347/1423/47 346/765/47
f 346/765/47 253/561/46 254/562/46
f 114/152/24 359/1424/71 362/777/71
f 359/1424/71 361/1425/187 362/777/71
f 189/1426/28 349/779/28 188/778/28
f 349/779/28 348/1427/188 358/780/28
f 95/1428/4 97/9/4 372/812/4
f 97/9/4 112/279/4 372/812/4
f 490/827/113 426/1429/113 388/1430/113
f 388/1430/113 387/825/113 490/827/113
f 481/869/2 446/1011/2 443/870/2
f 443/870/2 397/1014/2 482/1431/2
f 397/1014/2 398/1432/2 482/1431/2
f 443/870/2 482/1431/2 484/868/2
f 477/1071/8 459/831/8 405/830/8
f 404/879/8 408/1433/8 478/880/8
f 479/881/8 477/1071/8 404/879/8
f 477/1071/8 405/830/8 404/879/8
f 456/1434/12 459/1435/12 477/894/12
f 480/895/12 478/1436/12 407/896/12
f 478/1436/12 408/1437/12 407/896/12
f 456/1434/12 477/894/12 407/896/12
f 431/960/6 430/1171/6 494/958/6
f 430/1171/6 492/1170/6 494/958/6
f 414/1017/3 444/1002/3 482/1015/123
f 444/1002/3 446/1001/3 481/1074/145
f 483/1073/144 444/1002/3 481/1074/145
f 483/1073/144 482/1015/123 444/1002/3
f 392/829/8 449/828/8 470/1438/8
f 470/1438/8 472/1439/8 471/1056/8
f 471/1056/8 475/1440/8 469/1057/8
f 469/1057/8 467/1441/8 393/1058/8
f 467/1441/8 389/1442/8 393/1058/8
f 393/1058/8 392/829/8 471/1056/8
f 392/829/8 470/1438/8 471/1056/8
f 470/1063/3 449/1443/3 453/1064/3
f 453/1064/3 390/1444/3 474/1062/3
f 390/1444/3 389/1445/3 467/1066/3
f 474/1062/3 390/1444/3 467/1066/3
f 467/1066/3 468/1065/3 474/1062/3
f 468/1065/3 476/1069/3 474/1062/3
f 474/1062/3 473/1061/3 470/1063/3
f 400/890/146 487/1446/146 486/1447/146
f 486/1447/146 485/921/146 400/890/146
f 427/1448/147 491/1083/147 410/1082/147
f 491/1083/147 495/1449/147 387/1084/147
f 588/1102/18 563/1097/18 503/1100/18
f 503/1100/18 504/1450/18 587/1451/18
f 504/1450/18 500/1452/18 587/1451/18
f 587/1451/18 590/1101/18 503/1100/18
f 518/1099/18 573/1098/18 583/1453/18
f 585/1149/18 584/1454/18 517/1148/18
f 584/1454/18 521/1455/18 517/1148/18
f 518/1099/18 583/1453/18 585/1149/18
f 583/1167/12 573/1456/12 570/1168/12
f 570/1168/12 520/1457/12 586/1166/12
f 520/1457/12 521/1458/12 584/1329/12
f 586/1166/12 520/1457/12 584/1329/12
f 430/1171/6 429/964/6 493/1169/6
f 429/964/6 465/963/6 493/1169/6
f 560/1268/3 558/1267/3 591/1346/3
f 558/1267/3 527/1280/3 599/1282/3
f 591/1346/3 558/1267/3 599/1282/3
f 527/1280/3 509/1459/3 592/1460/3
f 527/1280/3 592/1460/3 597/1461/3
f 527/1280/3 597/1461/3 598/1281/3
f 567/1308/3 563/1462/3 588/1331/3
f 589/1330/3 587/1309/3 567/1308/3
f 587/1309/3 500/1463/3 501/1307/3
f 567/1308/3 588/1331/3 589/1330/3
